<svg width="57" height="71" viewBox="0 0 57 71" fill="none" xmlns="http://www.w3.org/2000/svg">
<path fill-rule="evenodd" clip-rule="evenodd" d="M2.26278 0.380652C1.57345 0.598997 0.397724 1.8224 0.186344 2.54137C-0.0621148 3.38652 -0.0621148 67.0116 0.186344 67.8567C0.414297 68.632 1.5778 69.8012 2.3493 70.0303C2.792 70.1617 7.90585 70.2019 24.1876 70.2019H42.1224C44.2509 70.2019 46.2917 69.3536 47.7931 67.8448L50.8218 64.8012L53.8668 61.7413C55.3587 60.2422 56.1962 58.2132 56.1962 56.0982V31.2615C56.1962 9.93093 56.1558 2.98681 56.0292 2.56226C55.9374 2.25429 55.5891 1.69693 55.2551 1.32361C54.1553 0.0942779 56.5997 0.194347 28.0458 0.210578C10.0354 0.220881 2.61279 0.269857 2.26278 0.380652ZM53.6042 2.80093V2.80093C53.825 3.02275 53.949 3.32302 53.949 3.63602V30.4645V54.1812C53.949 56.1696 52.3371 57.7815 50.3487 57.7815V57.7815C47.9325 57.7815 46.5582 57.838 46.1702 57.9532C45.3987 58.1822 44.2352 59.3514 44.0073 60.1267C43.8927 60.5166 43.8365 61.8976 43.8365 64.3257V64.3257C43.8365 66.3238 42.2166 67.9437 40.2185 67.9437H23.3944H3.44099C3.12815 67.9437 2.82822 67.819 2.60759 67.5972V67.5972V67.5972C2.38676 67.3753 2.26278 67.0751 2.26278 66.7621V35.199V3.63602C2.26278 3.32302 2.38676 3.02275 2.60759 2.80093V2.80093V2.80093C2.82822 2.57913 3.12815 2.45443 3.44099 2.45443H28.1059H52.7708C53.0836 2.45443 53.3836 2.57913 53.6042 2.80093V2.80093ZM20.8726 4.91028C19.1619 5.34979 18.7959 5.60554 14.6928 9.22861C12.916 10.7975 11.2728 12.2013 11.041 12.3482C10.8093 12.4953 10.3984 12.6164 10.1281 12.6174C9.50868 12.6198 8.35726 13.1561 7.82481 13.6901C7.60093 13.9148 7.26469 14.4315 7.07761 14.8385C6.74558 15.561 6.7387 15.6508 6.78252 18.6493C6.82704 21.6957 6.83055 21.726 7.21848 22.4659C7.73745 23.4557 8.56246 24.2371 9.50152 24.6282C10.0004 24.8361 10.2685 25.0307 10.2685 25.1851C10.2685 25.3157 10.4904 25.8681 10.7615 26.4128C12.8267 30.561 18.663 30.5662 20.7264 26.4215C20.9999 25.8721 21.2238 25.3357 21.2238 25.2297C21.2238 25.07 22.209 25.0369 26.9823 25.0369C31.7555 25.0369 32.7408 25.07 32.7408 25.2297C32.7408 25.3357 32.9627 25.8681 33.2338 26.4128C35.299 30.561 41.1353 30.5662 43.1987 26.4215C43.4722 25.8721 43.696 25.3357 43.696 25.2297C43.696 25.0794 44.0101 25.0369 45.1194 25.0369C45.9022 25.0369 46.8028 24.9597 47.1208 24.8653C47.8923 24.6362 49.0558 23.467 49.2838 22.6917C49.3961 22.3094 49.4545 21 49.4545 18.8613C49.4545 15.9749 49.427 15.5782 49.2088 15.3118C49.0245 15.0868 47.9825 14.7307 45.0466 13.8894C42.8926 13.272 41.1173 12.7491 41.1015 12.7271C41.0856 12.705 40.1301 11.3543 38.9784 9.72557C37.8266 8.09667 36.6409 6.51843 36.3435 6.21837C36.0462 5.9183 35.3826 5.47258 34.8688 5.22798V5.22798C34.2536 4.93511 33.5814 4.78173 32.9 4.77878L27.7548 4.75657C23.1232 4.73653 21.3989 4.77506 20.8726 4.91028ZM25.8587 9.72317V9.72317C25.8587 11.2432 24.6264 12.4754 23.1064 12.4754H20.1403C15.2821 12.4754 14.4529 12.4462 14.6276 12.2813C15.8266 11.1498 19.816 7.75327 20.1538 7.57628C21.0676 7.09767 21.725 6.9897 23.787 6.98039V6.98039C24.9296 6.97517 25.8587 7.89999 25.8587 9.04261V9.72317ZM33.9346 7.30642C34.7973 7.7153 34.8775 7.80465 36.7379 10.4289V10.4289C37.372 11.3234 36.7402 12.5619 35.6438 12.5736L34.1907 12.589C31.9641 12.6126 29.6843 12.5913 29.1242 12.5416V12.5416C28.5478 12.4905 28.1059 12.0076 28.1059 11.429V9.71117V9.53417C28.1059 8.11876 29.2537 6.97156 30.6691 6.97234V6.97234C33.0683 6.97361 33.2773 6.99492 33.9346 7.30642ZM42.3783 15.4639L43.8827 15.8975C44.1306 15.969 44.2516 16.2489 44.134 16.4784V16.4784C43.782 17.1645 43.8358 18.4932 44.2422 19.1542C44.7111 19.9166 45.4733 20.3801 46.4195 20.4782L46.4485 20.4812C46.8797 20.526 47.2073 20.8893 47.2073 21.3228V21.3228C47.2073 21.9447 47.1436 22.1499 46.8625 22.4322C46.5423 22.7541 46.4177 22.7787 45.1069 22.7787C44.0081 22.7787 43.696 22.7361 43.696 22.5859C43.696 22.4799 43.4741 21.9475 43.203 21.4028C42.6039 20.1995 41.761 19.3841 40.4909 18.7795C39.6425 18.3755 39.425 18.3327 38.2184 18.3327C37.0118 18.3327 36.7944 18.3755 35.9459 18.7795C34.6758 19.3841 33.833 20.1995 33.2338 21.4028C32.9627 21.9475 32.7408 22.4799 32.7408 22.5859C32.7408 22.7456 31.7555 22.7787 26.9823 22.7787C22.209 22.7787 21.2238 22.7456 21.2238 22.5859C21.2238 22.4799 21.0018 21.9475 20.7308 21.4028C20.1316 20.1995 19.2888 19.3841 18.0187 18.7795C17.1702 18.3755 16.9528 18.3327 15.7461 18.3327C14.5395 18.3327 14.3221 18.3755 13.4736 18.7795C12.9578 19.025 12.2555 19.4854 11.9134 19.8023C11.2978 20.3725 10.409 21.8299 10.409 22.2692C10.409 22.5702 10.2411 22.5558 9.81375 22.2179C9.28185 21.7975 9.00446 21.0789 9.00446 20.1213V20.0959C9.00446 19.5931 9.29712 19.1362 9.75391 18.926V18.926C11.1303 18.2928 12.117 16.9325 12.3246 15.3821V15.3821C12.3776 14.9864 12.7166 14.6919 13.1158 14.6948L26.4063 14.791L39.2949 14.8843C40.0251 14.8896 40.7512 14.9949 41.4529 15.1971L42.3783 15.4639ZM10.0743 15.3217C9.98018 15.7946 9.36275 16.7096 9.13775 16.7096C8.96584 16.7096 8.96626 16.1233 9.13845 15.6682C9.24506 15.3864 9.83271 14.9102 10.1105 14.8804C10.1395 14.8773 10.1232 15.0759 10.0743 15.3217ZM16.8698 17.1331V17.1331C16.8698 17.7566 17.3753 18.2622 17.9989 18.2622H18.5552H19.1115C19.7351 18.2622 20.2406 17.7566 20.2406 17.1331V17.1331V17.1331C20.2406 16.5095 19.7351 16.0039 19.1115 16.0039H18.5552H17.9989C17.3753 16.0039 16.8698 16.5095 16.8698 17.1331V17.1331ZM30.3531 17.1331V17.1331C30.3531 17.7566 30.8586 18.2622 31.4822 18.2622H32.0385H32.5948C33.2184 18.2622 33.724 17.7566 33.724 17.1331V17.1331V17.1331C33.724 16.5095 33.2184 16.0039 32.5948 16.0039H32.0385H31.4822C30.8586 16.0039 30.3531 16.5095 30.3531 17.1331V17.1331ZM47.2073 17.6976C47.2073 18.2218 47.1792 18.2622 46.8141 18.2622C46.3743 18.2622 46.0837 18.0375 46.0837 17.6976C46.0837 17.3577 46.3743 17.1331 46.8141 17.1331C47.1792 17.1331 47.2073 17.1734 47.2073 17.6976ZM16.7832 20.6921C17.9903 21.0504 19.117 22.603 19.117 23.9078C19.117 25.6567 17.4865 27.2952 15.7461 27.2952C14.0058 27.2952 12.3753 25.6567 12.3753 23.9078C12.3753 23.0207 12.6967 22.305 13.4239 21.5726C14.4092 20.5804 15.4704 20.3022 16.7832 20.6921ZM39.2555 20.6921C40.4626 21.0504 41.5893 22.603 41.5893 23.9078C41.5893 25.6567 39.9587 27.2952 38.2184 27.2952C36.4781 27.2952 34.8476 25.6567 34.8476 23.9078C34.8476 23.0207 35.1689 22.305 35.8962 21.5726C36.8815 20.5804 37.9427 20.3022 39.2555 20.6921ZM14.6225 23.9078V23.9078C14.6225 24.5284 15.1256 25.0369 15.7461 25.0369V25.0369V25.0369C16.3667 25.0369 16.8698 24.5284 16.8698 23.9078V23.9078V23.9078C16.8698 23.2872 16.3667 22.7787 15.7461 22.7787V22.7787V22.7787C15.1256 22.7787 14.6225 23.2872 14.6225 23.9078V23.9078ZM37.0948 23.9078V23.9078C37.0948 24.5284 37.5979 25.0369 38.2184 25.0369V25.0369V25.0369C38.839 25.0369 39.342 24.5284 39.342 23.9078V23.9078V23.9078C39.342 23.2872 38.839 22.7787 38.2184 22.7787V22.7787V22.7787C37.5979 22.7787 37.0948 23.2872 37.0948 23.9078V23.9078ZM38.078 32.5879V32.5879C37.1374 33.5364 35.8569 34.0699 34.5211 34.0699H33.2636H30.4077C30.0949 34.0699 29.7949 34.1946 29.5743 34.4164V34.4164V34.4164C29.3535 34.6382 29.2295 34.9385 29.2295 35.2515V38.5864V41.9213C29.2295 42.2343 29.3535 42.5346 29.5743 42.7564V42.7564V42.7564C29.7949 42.9782 30.0949 43.1029 30.4077 43.1029H33.724H37.0402C37.353 43.1029 37.653 42.9782 37.8736 42.7564V42.7564V42.7564C38.0944 42.5346 38.2184 42.2343 38.2184 41.9213V39.0491V37.7751C38.2184 36.4386 38.7488 35.1568 39.6932 34.2111V34.2111C40.5043 33.3988 41.1679 32.6671 41.1679 32.5851C41.1679 32.3983 39.8731 31.106 39.6859 31.106C39.6099 31.106 38.8863 31.7729 38.078 32.5879ZM17.9934 36.3282V36.3282C17.9934 36.9518 18.4989 37.4573 19.1225 37.4573H22.4878H25.8532C26.4768 37.4573 26.9823 36.9518 26.9823 36.3282V36.3282V36.3282C26.9823 35.7046 26.4768 35.199 25.8532 35.199H22.4878H19.1225C18.4989 35.199 17.9934 35.7046 17.9934 36.3282V36.3282ZM42.7129 36.3282V36.3282C42.7129 36.9518 43.2184 37.4573 43.842 37.4573H47.2073H50.5727C51.1963 37.4573 51.7018 36.9518 51.7018 36.3282V36.3282V36.3282C51.7018 35.7046 51.1962 35.199 50.5727 35.199H47.2073H43.842C43.2184 35.199 42.7129 35.7046 42.7129 36.3282V36.3282ZM33.6835 37.0034C33.3196 37.3749 33.0286 37.74 33.0369 37.8149C33.0452 37.8899 33.3949 38.2645 33.8139 38.6472L33.8508 38.6811C34.2569 39.052 34.8825 39.0395 35.2734 38.6526V38.6526V38.6526C35.532 38.3966 35.9712 38.5798 35.9712 38.9437V39.4033V39.4033C35.9712 40.1994 35.3259 40.8447 34.5299 40.8447H33.724V40.8447C32.4828 40.8447 31.4767 39.8275 31.4767 38.5864V38.5864V37.7625C31.4767 36.9703 32.1189 36.3282 32.911 36.3282V36.3282H33.3999C33.7518 36.3282 33.9299 36.7521 33.6835 37.0034V37.0034ZM15.7461 40.8447V40.8447C15.7461 41.4683 16.2517 41.9738 16.8753 41.9738H21.3642H25.8532C26.4768 41.9738 26.9823 41.4683 26.9823 40.8447V40.8447V40.8447C26.9823 40.2211 26.4768 39.7155 25.8532 39.7155H21.3642H16.8753C16.2517 39.7155 15.7461 40.2211 15.7461 40.8447V40.8447ZM40.4656 40.8447V40.8447C40.4656 41.4683 40.9712 41.9738 41.5948 41.9738H46.0837H50.5727C51.1962 41.9738 51.7018 41.4683 51.7018 40.8447V40.8447V40.8447C51.7018 40.2211 51.1962 39.7155 50.5727 39.7155H46.0837H41.5948C40.9712 39.7155 40.4656 40.2211 40.4656 40.8447V40.8447ZM13.3585 43.8792V43.8792C12.4179 44.8277 11.1374 45.3612 9.80162 45.3612H8.54406H5.68822C5.37538 45.3612 5.07544 45.4859 4.85482 45.7077V45.7077V45.7077C4.63399 45.9295 4.51001 46.2298 4.51001 46.5428V49.8777V53.2126C4.51001 53.5256 4.63399 53.8258 4.85482 54.0477V54.0477V54.0477C5.07544 54.2695 5.37538 54.3942 5.68822 54.3942H9.00446H12.3207C12.6335 54.3942 12.9335 54.2695 13.1541 54.0477V54.0477V54.0477C13.3749 53.8258 13.4989 53.5256 13.4989 53.2126V50.3403V49.0663C13.4989 47.7299 14.0293 46.448 14.9737 45.5023V45.5023C15.7848 44.69 16.4484 43.9584 16.4484 43.8764C16.4484 43.6895 15.1536 42.3972 14.9664 42.3972C14.8904 42.3972 14.1668 43.0641 13.3585 43.8792ZM38.078 43.8792V43.8792C37.1374 44.8277 35.8569 45.3612 34.5211 45.3612H33.2636H30.4077C30.0949 45.3612 29.7949 45.4859 29.5743 45.7077V45.7077V45.7077C29.3535 45.9295 29.2295 46.2298 29.2295 46.5428V49.8777V53.2126C29.2295 53.5256 29.3535 53.8258 29.5743 54.0477V54.0477V54.0477C29.7949 54.2695 30.0949 54.3942 30.4077 54.3942H33.724H37.0402C37.353 54.3942 37.653 54.2695 37.8736 54.0477V54.0477V54.0477C38.0944 53.8258 38.2184 53.5256 38.2184 53.2126V50.3403V49.0663C38.2184 47.7299 38.7488 46.448 39.6932 45.5023V45.5023C40.5043 44.69 41.1679 43.9584 41.1679 43.8764C41.1679 43.6895 39.8731 42.3972 39.6859 42.3972C39.6099 42.3972 38.8863 43.0641 38.078 43.8792ZM17.9934 47.6194V47.6194C17.9934 48.243 18.4989 48.7485 19.1225 48.7485H22.4878H25.8532C26.4768 48.7485 26.9823 48.243 26.9823 47.6194V47.6194V47.6194C26.9823 46.9958 26.4768 46.4903 25.8532 46.4903H22.4878H19.1225C18.4989 46.4903 17.9934 46.9958 17.9934 47.6194V47.6194ZM42.7129 47.6194V47.6194C42.7129 48.243 43.2184 48.7485 43.842 48.7485H47.2073H50.5727C51.1962 48.7485 51.7018 48.243 51.7018 47.6194V47.6194V47.6194C51.7018 46.9958 51.1962 46.4903 50.5727 46.4903H47.2073H43.842C43.2184 46.4903 42.7129 46.9958 42.7129 47.6194V47.6194ZM8.96401 48.2946C8.6001 48.6661 8.30909 49.0312 8.31737 49.1062C8.32566 49.1811 8.67538 49.5557 9.09435 49.9385L9.13135 49.9723C9.53742 50.3433 10.163 50.3308 10.5539 49.9439V49.9439V49.9439C10.8126 49.6878 11.2517 49.871 11.2517 50.235V50.6946V50.6946C11.2517 51.4906 10.6064 52.1359 9.81036 52.1359H9.00446V52.1359C7.76335 52.1359 6.75724 51.1188 6.75724 49.8777V49.8777V49.0537C6.75724 48.2616 7.39939 47.6194 8.19153 47.6194V47.6194H8.6804C9.03234 47.6194 9.2104 48.0433 8.96401 48.2946V48.2946ZM33.6835 48.2946C33.3196 48.6661 33.0286 49.0312 33.0369 49.1062C33.0452 49.1811 33.3949 49.5557 33.8139 49.9385L33.8508 49.9723C34.2569 50.3433 34.8825 50.3308 35.2734 49.9439V49.9439V49.9439C35.532 49.6878 35.9712 49.871 35.9712 50.235V50.6946V50.6946C35.9712 51.4906 35.3259 52.1359 34.5299 52.1359H33.724V52.1359C32.4828 52.1359 31.4767 51.1188 31.4767 49.8777V49.8777V49.0537C31.4767 48.2616 32.1189 47.6194 32.911 47.6194V47.6194H33.3999C33.7518 47.6194 33.9299 48.0433 33.6835 48.2946V48.2946ZM15.7461 52.1359V52.1359C15.7461 52.7595 16.2517 53.265 16.8753 53.265H21.3642H25.8532C26.4768 53.265 26.9823 52.7595 26.9823 52.1359V52.1359V52.1359C26.9823 51.5123 26.4768 51.0068 25.8532 51.0068H21.3642H16.8753C16.2517 51.0068 15.7461 51.5123 15.7461 52.1359V52.1359ZM40.4656 52.1359V52.1359C40.4656 52.7595 40.9712 53.265 41.5948 53.265H46.0837H50.5727C51.1962 53.265 51.7018 52.7595 51.7018 52.1359V52.1359V52.1359C51.7018 51.5123 51.1962 51.0068 50.5727 51.0068H46.0837H41.5948C40.9712 51.0068 40.4656 51.5123 40.4656 52.1359V52.1359ZM13.3585 55.1704V55.1704C12.4179 56.1189 11.1374 56.6524 9.80162 56.6524H8.54406H5.68822C5.37538 56.6524 5.07544 56.7771 4.85482 56.9989V56.9989V56.9989C4.63399 57.2207 4.51001 57.521 4.51001 57.834V61.1689V64.5038C4.51001 64.8168 4.63399 65.1171 4.85482 65.3389V65.3389V65.3389C5.07544 65.5607 5.37538 65.6854 5.68822 65.6854H9.00446H12.3207C12.6335 65.6854 12.9335 65.5607 13.1541 65.3389V65.3389V65.3389C13.3749 65.1171 13.4989 64.8168 13.4989 64.5038V61.6316V60.3576C13.4989 59.0211 14.0293 57.7393 14.9737 56.7936V56.7936C15.7848 55.9813 16.4484 55.2496 16.4484 55.1676C16.4484 54.9807 15.1536 53.6885 14.9664 53.6885C14.8904 53.6885 14.1668 54.3553 13.3585 55.1704ZM17.9934 58.9107V58.9107C17.9934 59.5343 18.4989 60.0398 19.1225 60.0398H22.4878H25.8532C26.4768 60.0398 26.9823 59.5343 26.9823 58.9107V58.9107V58.9107C26.9823 58.2871 26.4768 57.7815 25.8532 57.7815H22.4878H19.1225C18.4989 57.7815 17.9934 58.2871 17.9934 58.9107V58.9107ZM8.96401 59.5859C8.6001 59.9574 8.30909 60.3225 8.31737 60.3974C8.32566 60.4724 8.67538 60.847 9.09435 61.2297L9.13135 61.2635C9.53742 61.6345 10.163 61.622 10.5539 61.2351V61.2351V61.2351C10.8126 60.9791 11.2517 61.1623 11.2517 61.5262V61.9858V61.9858C11.2517 62.7819 10.6064 63.4272 9.81036 63.4272H9.00446V63.4272C7.76335 63.4272 6.75724 62.41 6.75724 61.1689V61.1689V60.345C6.75724 59.5528 7.39939 58.9107 8.19153 58.9107V58.9107H8.6804C9.03234 58.9107 9.2104 59.3346 8.96401 59.5859V59.5859ZM52.2636 60.0763C52.2636 60.0964 50.8731 61.5089 49.1736 63.2154L48.0544 64.3393C47.3285 65.0682 46.0837 64.5541 46.0837 63.5254V63.5254C46.0837 59.777 45.8247 60.0398 49.5185 60.0398C51.0283 60.0398 52.2636 60.0562 52.2636 60.0763ZM15.7461 63.4272V63.4272C15.7461 64.0508 16.2517 64.5563 16.8753 64.5563H21.3642H25.8532C26.4768 64.5563 26.9823 64.0508 26.9823 63.4272V63.4272V63.4272C26.9823 62.8036 26.4768 62.298 25.8532 62.298H21.3642H16.8753C16.2517 62.298 15.7461 62.8036 15.7461 63.4272V63.4272Z" fill="white"/>
<path fill-rule="evenodd" clip-rule="evenodd" d="M13.3582 32.5876V32.5876C12.4176 33.5361 11.1372 34.0696 9.80137 34.0696H8.54382H5.68797C5.37513 34.0696 5.0752 34.1943 4.85457 34.4161V34.4161V34.4161C4.63374 34.6379 4.50977 34.9382 4.50977 35.2512V38.5861V41.921C4.50977 42.234 4.63374 42.5343 4.85457 42.7561V42.7561V42.7561C5.0752 42.9779 5.37513 43.1026 5.68797 43.1026H9.00422H12.3205C12.6333 43.1026 12.9332 42.9779 13.1539 42.7561V42.7561V42.7561C13.3747 42.5343 13.4987 42.234 13.4987 41.921V39.0488V37.7748C13.4987 36.4383 14.0291 35.1565 14.9734 34.2107V34.2107C15.7845 33.3985 16.4482 32.6668 16.4482 32.5848C16.4482 32.3979 15.1533 31.1057 14.9661 31.1057C14.8901 31.1057 14.1665 31.7725 13.3582 32.5876ZM8.96401 37.0032C8.6001 37.3747 8.30908 37.7398 8.31737 37.8148C8.32565 37.8897 8.67538 38.2643 9.09434 38.6471L9.13135 38.6809C9.53741 39.0518 10.163 39.0393 10.5539 38.6524V38.6524V38.6524C10.8125 38.3964 11.2517 38.5796 11.2517 38.9435V39.4032V39.4032C11.2517 40.1992 10.6064 40.8445 9.81035 40.8445H9.00446V40.8445C7.76335 40.8445 6.75723 39.8273 6.75723 38.5862V38.5862V37.7623C6.75723 36.9701 7.39938 36.328 8.19152 36.328V36.328H8.68039C9.03234 36.328 9.21039 36.7519 8.96401 37.0032V37.0032Z" fill="#DB3138"/>
<path fill-rule="evenodd" clip-rule="evenodd" d="M13.3582 43.8847V43.8847C12.4176 44.8332 11.1372 45.3667 9.80137 45.3667H8.54382H5.68797C5.37513 45.3667 5.0752 45.4914 4.85457 45.7132V45.7132V45.7132C4.63374 45.935 4.50977 46.2353 4.50977 46.5483V49.8832V53.2181C4.50977 53.5311 4.63374 53.8314 4.85457 54.0532V54.0532V54.0532C5.0752 54.275 5.37513 54.3997 5.68797 54.3997H9.00422H12.3205C12.6333 54.3997 12.9332 54.275 13.1539 54.0532V54.0532V54.0532C13.3747 53.8314 13.4987 53.5311 13.4987 53.2181V50.3459V49.0719C13.4987 47.7354 14.0291 46.4536 14.9734 45.5079V45.5079C15.7845 44.6956 16.4482 43.9639 16.4482 43.8819C16.4482 43.6951 15.1533 42.4028 14.9661 42.4028C14.8901 42.4028 14.1665 43.0697 13.3582 43.8847ZM8.96401 48.3002C8.6001 48.6717 8.30908 49.0368 8.31737 49.1118C8.32565 49.1867 8.67538 49.5613 9.09434 49.9441L9.13135 49.9779C9.53741 50.3488 10.163 50.3363 10.5539 49.9494V49.9494V49.9494C10.8125 49.6934 11.2517 49.8766 11.2517 50.2405V50.7001V50.7001C11.2517 51.4962 10.6064 52.1415 9.81035 52.1415H9.00446V52.1415C7.76335 52.1415 6.75723 51.1243 6.75723 49.8832V49.8832V49.0593C6.75723 48.2671 7.39938 47.625 8.19152 47.625V47.625H8.68039C9.03234 47.625 9.21039 48.0489 8.96401 48.3002V48.3002Z" fill="#DB3138"/>
<path fill-rule="evenodd" clip-rule="evenodd" d="M13.3585 55.1761V55.1761C12.4179 56.1246 11.1374 56.6581 9.80162 56.6581H8.54406H5.68822C5.37538 56.6581 5.07544 56.7828 4.85482 57.0046V57.0046V57.0046C4.63399 57.2264 4.51001 57.5267 4.51001 57.8397V61.1746V64.5095C4.51001 64.8225 4.63399 65.1228 4.85482 65.3446V65.3446V65.3446C5.07544 65.5664 5.37538 65.6911 5.68822 65.6911H9.00446H12.3207C12.6335 65.6911 12.9335 65.5664 13.1541 65.3446V65.3446V65.3446C13.3749 65.1228 13.4989 64.8225 13.4989 64.5095V61.6373V60.3633C13.4989 59.0268 14.0293 57.745 14.9737 56.7992V56.7992C15.7848 55.987 16.4484 55.2553 16.4484 55.1733C16.4484 54.9864 15.1536 53.6942 14.9664 53.6942C14.8904 53.6942 14.1668 54.361 13.3585 55.1761ZM8.96401 59.5917C8.6001 59.9632 8.30908 60.3283 8.31737 60.4033C8.32565 60.4782 8.67538 60.8528 9.09434 61.2356L9.13135 61.2694C9.53741 61.6403 10.163 61.6278 10.5539 61.2409V61.2409V61.2409C10.8125 60.9849 11.2517 61.1681 11.2517 61.532V61.9916V61.9916C11.2517 62.7877 10.6064 63.433 9.81035 63.433H9.00446V63.433C7.76335 63.433 6.75723 62.4158 6.75723 61.1747V61.1747V60.3508C6.75723 59.5586 7.39938 58.9165 8.19152 58.9165V58.9165H8.68039C9.03234 58.9165 9.21039 59.3404 8.96401 59.5917V59.5917Z" fill="#DB3138"/>
<path fill-rule="evenodd" clip-rule="evenodd" d="M38.0496 43.8847V43.8847C37.109 44.8332 35.8286 45.3667 34.4928 45.3667H33.2352H30.3794C30.0665 45.3667 29.7666 45.4914 29.546 45.7132V45.7132V45.7132C29.3252 45.935 29.2012 46.2353 29.2012 46.5483V49.8832V53.2181C29.2012 53.5311 29.3252 53.8314 29.546 54.0532V54.0532V54.0532C29.7666 54.275 30.0665 54.3997 30.3794 54.3997H33.6956H37.0119C37.3247 54.3997 37.6246 54.275 37.8453 54.0532V54.0532V54.0532C38.0661 53.8314 38.1901 53.5311 38.1901 53.2181V50.3459V49.0719C38.1901 47.7354 38.7205 46.4536 39.6648 45.5079V45.5079C40.4759 44.6956 41.1396 43.9639 41.1396 43.8819C41.1396 43.6951 39.8447 42.4028 39.6575 42.4028C39.5815 42.4028 38.8579 43.0697 38.0496 43.8847ZM33.6556 48.3002C33.2917 48.6717 33.0007 49.0368 33.009 49.1118C33.0172 49.1867 33.367 49.5613 33.7859 49.9441L33.8229 49.9779C34.229 50.3488 34.8546 50.3363 35.2455 49.9494V49.9494V49.9494C35.5041 49.6934 35.9433 49.8766 35.9433 50.2405V50.7001V50.7001C35.9433 51.4962 35.298 52.1415 34.5019 52.1415H33.696V52.1415C32.4549 52.1415 31.4488 51.1243 31.4488 49.8832V49.8832V49.0593C31.4488 48.2671 32.091 47.625 32.8831 47.625V47.625H33.372C33.7239 47.625 33.902 48.0489 33.6556 48.3002V48.3002Z" fill="#DB3138"/>
<path fill-rule="evenodd" clip-rule="evenodd" d="M38.0496 32.5938V32.5938C37.109 33.5423 35.8286 34.0758 34.4928 34.0758H33.2352H30.3794C30.0665 34.0758 29.7666 34.2005 29.546 34.4223V34.4223V34.4223C29.3252 34.6441 29.2012 34.9444 29.2012 35.2574V38.5923V41.9272C29.2012 42.2402 29.3252 42.5404 29.546 42.7623V42.7623V42.7623C29.7666 42.9841 30.0665 43.1088 30.3794 43.1088H33.6956H37.0119C37.3247 43.1088 37.6246 42.9841 37.8453 42.7623V42.7623V42.7623C38.0661 42.5404 38.1901 42.2402 38.1901 41.9272V39.0549V37.7809C38.1901 36.4445 38.7205 35.1626 39.6648 34.2169V34.2169C40.4759 33.4046 41.1396 32.673 41.1396 32.591C41.1396 32.4041 39.8447 31.1118 39.6575 31.1118C39.5815 31.1118 38.8579 31.7787 38.0496 32.5938ZM33.6556 37.0092C33.2917 37.3807 33.0007 37.7458 33.009 37.8208C33.0172 37.8957 33.367 38.2703 33.7859 38.6531L33.8229 38.6869C34.229 39.0579 34.8546 39.0454 35.2455 38.6585V38.6585V38.6585C35.5041 38.4024 35.9433 38.5856 35.9433 38.9495V39.4092V39.4092C35.9433 40.2052 35.298 40.8505 34.5019 40.8505H33.696V40.8505C32.4549 40.8505 31.4488 39.8334 31.4488 38.5923V38.5923V37.7683C31.4488 36.9762 32.091 36.334 32.8831 36.334V36.334H33.372C33.7239 36.334 33.902 36.7579 33.6556 37.0092V37.0092Z" fill="#DB3138"/>
</svg>
