<svg width="75" height="70" viewBox="0 0 75 70" fill="none" xmlns="http://www.w3.org/2000/svg">
<path fill-rule="evenodd" clip-rule="evenodd" d="M54.9328 3.07257C51.4898 5.60016 50.4727 6.26415 49.6634 6.51317V6.51317C49.003 6.71648 48.3058 6.77149 47.6216 6.67426L43.2618 6.05465C37.2061 5.19415 36.3283 5.18343 33.7897 5.93892C32.9885 6.1774 31.8105 6.67649 31.1721 7.04791C30.5337 7.41933 26.9928 10.0017 23.3034 12.7864C16.4155 17.9856 16.0525 18.3143 15.7871 19.5951C15.7316 19.8634 15.439 20.2691 15.1056 20.5401C14.7843 20.8012 14.3174 21.3765 14.068 21.8182C13.2541 23.2598 13.172 23.909 13.172 28.9036V28.9036C13.172 31.4076 11.1421 33.4376 8.63808 33.4376H6.58602H1.4049C0.628994 33.4376 0 34.0666 0 34.8425V34.8425V34.8425C0 35.6184 0.628995 36.2474 1.4049 36.2474H19.2466C29.8323 36.2474 38.4673 36.3066 38.4356 36.3791C37.3427 38.8754 36.6987 40.9274 36.2719 43.2719C35.8965 45.3337 35.9024 49.789 36.2831 51.8699C37.9865 61.1787 44.1009 68.1416 51.9287 69.6865C62.509 71.7747 72.4444 63.2092 74.0279 50.6348C74.631 45.8465 73.9061 41.3484 71.7306 36.3791C71.6989 36.3066 72.2511 36.2474 72.9577 36.2474V36.2474C73.6672 36.2474 74.2424 35.6722 74.2424 34.9626V34.8425V34.8425C74.2424 34.0666 73.6134 33.4376 72.8375 33.4376H72.1518H72.0638C70.796 33.4376 69.5949 32.8699 68.7901 31.8904V31.8904C64.9633 27.233 59.6306 24.7332 54.2598 25.0789C53.2719 25.1425 52.2448 25.2407 51.9772 25.2969C51.5184 25.3935 51.4907 25.3698 51.4907 24.8803C51.4907 24.4214 51.5644 24.3357 52.1269 24.1406C53.2362 23.7557 54.9704 22.5893 56.1309 21.4476C56.7483 20.8402 59.2405 18.8918 61.6691 17.1177C64.0977 15.3437 66.1674 13.8041 66.2684 13.6964C66.4112 13.5447 66.3169 13.2404 65.8472 12.3354V12.3354C65.5289 11.7224 64.7393 11.5371 64.1815 11.9445L63.493 12.4475C62.531 13.1503 60.4305 14.6839 58.8251 15.8556C57.2198 17.0273 55.5423 18.3568 55.0973 18.8101C53.7689 20.1632 52.4527 21.0787 51.0722 21.6095C49.878 22.0688 49.5945 22.1091 47.6738 22.0946C45.9167 22.0811 45.2035 21.986 43.2582 21.5056C41.2942 21.0205 40.4786 20.9132 37.9445 20.8061C36.298 20.7364 34.773 20.5919 34.5558 20.4847C33.8013 20.113 32.6307 18.651 32.6307 18.0802C32.6307 18.027 34.4494 17.9837 36.6722 17.9837H39.3087C40.0846 17.9837 40.7136 17.3547 40.7136 16.5788V16.5788V16.5788C40.7136 15.8029 40.0846 15.1739 39.3087 15.1739H35.7682H33.1969C31.6475 15.1739 30.1315 15.6238 28.8329 16.469L25.5735 18.5904C20.0446 22.1891 19.3631 22.5206 18.5702 21.9985C18.0384 21.6483 17.8349 20.8962 18.1165 20.3211C18.3252 19.895 30.4859 10.5714 32.032 9.65225C33.4756 8.79403 35.6964 8.15374 37.261 8.14444C37.7192 8.1418 40.4322 8.47441 43.2898 8.88377C50.4865 9.91479 49.9235 10.0646 56.2955 5.42314C58.3866 3.89988 60.1807 2.56487 60.2825 2.45617C60.4267 2.30216 60.341 2.01784 59.8912 1.1598C59.5743 0.555163 59.289 0.0335944 59.2573 0.000579277C59.2254 -0.0324359 57.2794 1.34999 54.9328 3.07257ZM13.8456 2.73961C13.4442 3.00672 13.3776 3.14106 13.0122 4.41882C12.6354 5.73609 12.0274 6.51388 11.2578 6.66332C10.323 6.84455 9.91256 7.10341 9.72725 7.62866C9.36383 8.65775 9.88936 9.41974 11.1171 9.64399C11.9945 9.80433 12.5913 10.5482 13.0119 12.006C13.3937 13.3294 13.7323 13.769 14.3695 13.769C15.0016 13.769 15.3736 13.3099 15.7139 12.1103C15.8906 11.4876 16.1768 10.7667 16.3499 10.5084C16.7038 9.98082 17.4586 9.55426 18.0387 9.55426C18.5757 9.55426 19.1593 8.82265 19.1593 8.14935C19.1593 7.42706 18.5772 6.74445 17.9613 6.74445C16.9159 6.74445 16.2118 5.94366 15.7139 4.18841C15.2853 2.67709 14.6638 2.19521 13.8456 2.73961ZM14.6635 7.87838C14.8063 8.08016 14.7992 8.21012 14.6302 8.4932C14.4168 8.85075 14.415 8.85075 14.1475 8.50392C13.9279 8.21907 13.9134 8.10756 14.0677 7.88927C14.3035 7.55596 14.4337 7.5535 14.6635 7.87838ZM5.43032 16.7907C5.23798 16.8998 4.9931 17.32 4.84881 17.7887C4.14231 20.0842 3.81765 20.5135 2.58322 20.784C1.86399 20.9417 1.19746 21.5886 1.19746 22.129C1.19746 22.6829 1.65698 23.4238 2.06083 23.5209C3.70988 23.9174 4.11552 24.3189 4.62863 26.0618C5.00238 27.3312 5.37434 27.818 5.97053 27.818C6.61955 27.818 6.98882 27.3679 7.33174 26.1593C7.50836 25.5366 7.79456 24.8157 7.96774 24.5574C8.32159 24.0298 9.07644 23.6033 9.65646 23.6033C10.1935 23.6033 10.7771 22.8717 10.7771 22.1984C10.7771 21.4761 10.195 20.7935 9.57907 20.7935C8.53369 20.7935 7.82958 19.9927 7.33174 18.2374C6.89946 16.7133 6.33096 16.2807 5.43032 16.7907ZM30.3512 19.1801C30.3893 19.3139 30.2318 19.3866 29.9115 19.3829C29.4383 19.3777 29.4277 19.364 29.706 19.1172C30.0264 18.8329 30.259 18.8556 30.3512 19.1801ZM6.28127 21.9274C6.42407 22.1292 6.41703 22.2591 6.24804 22.5422C6.03459 22.8998 6.0328 22.8998 5.76531 22.5529C5.54573 22.2681 5.53121 22.1566 5.68553 21.9383C5.92128 21.605 6.05151 21.6025 6.28127 21.9274ZM33.3338 22.8473V22.8473C34.0687 23.2734 34.8965 23.514 35.7453 23.5483L37.6206 23.624C40.3273 23.7334 41.1044 23.8312 42.9588 24.2959C44.4218 24.6624 45.7757 24.8759 47.1125 24.9509L48.5281 25.0304C48.8466 25.0483 49.0958 25.3118 49.0958 25.6309V25.6309C49.0958 26.1049 49.0274 26.2194 48.6842 26.3193C47.8409 26.5648 45.2364 28.1694 43.9922 29.21C43.2845 29.802 42.1142 30.9953 41.3914 31.862V31.862C40.5586 32.8604 39.3255 33.4376 38.0254 33.4376H27.822H20.0539C17.5758 33.4376 15.567 31.4287 15.567 28.9507V28.9507C15.567 25.1539 15.6044 24.3775 15.8105 23.9018C16.1426 23.1354 16.1426 23.1354 16.4005 23.5673C16.7993 24.2353 17.8932 24.8585 18.8441 24.9597C20.0414 25.087 21.3543 24.592 23.3504 23.2599V23.2599C24.3754 22.5761 25.5794 22.2102 26.8115 22.208L28.5685 22.2049L30.9212 22.2007C31.7684 22.1992 32.6009 22.4223 33.3338 22.8473V22.8473ZM37.1212 26.4131V26.6205C37.1212 27.2818 37.6573 27.818 38.3187 27.818V27.818V27.818C38.98 27.818 39.5161 27.2818 39.5161 26.6205V26.4131V26.2056C39.5161 25.5443 38.98 25.0082 38.3187 25.0082V25.0082V25.0082C37.6573 25.0082 37.1212 25.5443 37.1212 26.2056V26.4131ZM57.706 28.0763C64.6897 29.4053 70.0609 35.5289 71.5737 43.8865C71.82 45.2466 71.82 49.7265 71.5737 51.0866C70.1075 59.1876 65.0564 65.1137 58.1516 66.834C56.9923 67.1229 53.1739 67.1229 52.0146 66.834C46.8121 65.5378 42.6382 61.9131 40.2978 56.6586C37.7062 50.8408 37.6679 44.4216 40.1893 38.5314C43.3993 31.0326 50.6134 26.7267 57.706 28.0763ZM21.5543 30.6278V30.8352C21.5543 31.4965 22.0904 32.0327 22.7517 32.0327V32.0327V32.0327C23.413 32.0327 23.9492 31.4965 23.9492 30.8352V30.6278V30.4203C23.9492 29.759 23.413 29.2229 22.7517 29.2229V29.2229V29.2229C22.0904 29.2229 21.5543 29.759 21.5543 30.4203V30.6278Z" fill="white"/>
<path fill-rule="evenodd" clip-rule="evenodd" d="M43.5537 38.0929C44.193 36.5786 45.4165 35.4047 46.7755 35.0018C47.0225 34.9286 49.2789 34.8829 51.7898 34.9003C56.2005 34.9309 56.3781 34.9453 57.0334 35.3283C58.0998 35.9517 58.73 36.6605 59.2846 37.8602V37.8602C59.623 38.5925 59.8032 39.3879 59.8135 40.1945L59.8474 42.8452L59.8869 45.9342C59.8905 46.218 60.2385 46.3522 60.4317 46.1444V46.1444C61.3676 45.1389 62.1883 44.7771 63.5399 44.7741C64.9325 44.771 65.7564 45.1303 66.7346 46.1671C68.0527 47.5642 68.4414 49.4284 68.1119 52.7724C67.6925 57.0278 67.0986 58.4902 65.3496 59.5728V59.5728C64.8515 59.8812 64.2774 60.0445 63.6916 60.0445H55.6067H47.7478C47.015 60.0445 46.2974 59.8356 45.6791 59.4423V59.4423C44.6564 58.7917 44.0523 58.0524 43.5209 56.8011C43.1843 56.0081 43.1831 55.9766 43.1831 47.4882V39.9241C43.1831 39.2951 43.3091 38.6724 43.5537 38.0929V38.0929ZM65.6342 53.3714C66.0797 49.8954 65.8282 48.5437 64.6072 47.8502C63.9222 47.461 63.3123 47.4075 62.7208 47.6844C62.1367 47.9578 61.8208 48.3746 61.3383 49.508C60.5549 51.3486 60.2007 51.6617 57.4578 52.9401C56.6049 53.3376 55.7565 53.8273 55.5726 54.0282C54.8258 54.8438 55.0488 56.4931 55.9826 57.0597C56.3764 57.2987 57.0071 57.3317 60.3194 57.2871L63.5104 57.2441C63.9467 57.2383 64.3605 57.0491 64.6505 56.723V56.723C65.2063 56.098 65.3458 55.6228 65.6342 53.3714ZM56.3738 38.103C56.601 38.3022 56.9256 38.6831 57.0954 38.9497C57.3885 39.4098 57.4063 39.6986 57.4477 44.6674L57.4799 48.5303C57.4868 49.3653 57.0065 50.1278 56.2503 50.4821V50.4821C54.5887 51.2608 53.9937 51.7195 53.4554 52.6373C52.7221 53.8878 52.4974 55.7375 52.9224 57.0248C53.0218 57.3261 52.8709 57.3398 50.0247 57.2882C46.7357 57.2286 46.6344 57.1977 45.8878 56.025C45.5889 55.5556 45.5778 55.2997 45.5345 47.9577C45.5101 43.7873 45.5296 40.1206 45.5779 39.8095C45.6873 39.1063 46.3156 38.2096 46.9188 37.8962C47.2741 37.7114 48.3265 37.668 51.6681 37.6998C55.7409 37.7388 55.9819 37.7595 56.3738 38.103Z" fill="#DB3138"/>
</svg>
