<svg width="70" height="71" viewBox="0 0 70 71" fill="none" xmlns="http://www.w3.org/2000/svg">
<path fill-rule="evenodd" clip-rule="evenodd" d="M45.1614 0.357146C40.9851 0.956521 37.0729 3.66817 34.9295 7.4493C34.6103 8.01241 33.7192 10.1686 32.949 12.2408L31.7576 15.4469C31.6322 15.7844 31.3101 16.0084 30.95 16.0084V16.0084V16.0084C30.6191 16.0084 30.3509 15.7402 30.3509 15.4093V15.2258C30.3509 14.583 30.2893 14.3811 30.0063 14.0968C29.6792 13.7678 29.5778 13.7504 28.0058 13.7518C26.1755 13.7535 23.0865 14.0561 21.5961 14.3797C19.887 14.7509 18.8291 15.6198 18.2751 17.1075C17.5305 19.1066 18.4324 21.3674 20.3523 22.3153C21.1399 22.7042 21.2156 22.7134 24.187 22.7825L24.5739 22.7916C25.6487 22.8166 26.2235 24.0677 25.5424 24.8995V24.8995C23.6545 27.205 22.7351 28.5104 22.0798 29.8157C21.7199 30.5328 21.584 30.6886 21.3935 30.6031C21.2628 30.5445 20.6188 30.3037 19.9625 30.0681C18.8716 29.6764 18.6128 29.639 16.9443 29.6335C14.8677 29.6265 13.7906 29.8825 12.0309 30.8015C10.667 31.5136 8.68736 33.5016 8.00004 34.8491C6.63383 37.5273 6.42452 40.2041 7.35764 43.0617V43.0617C7.53887 43.6167 7.39593 44.2265 6.98692 44.6432L5.82353 45.8285C4.8174 46.8534 3.88624 47.9054 3.75428 48.1664C3.38451 48.8972 3.32176 50.0014 3.60196 50.8493V50.8493C3.75391 51.3093 3.69271 51.813 3.43506 52.2232L3.28484 52.4624C1.95442 54.5801 0.972578 56.985 0.432943 59.448C0.170145 60.6473 0.124801 61.3977 0.0664014 65.5094L0.0158863 69.0792C0.00714915 69.6967 0.505276 70.2019 1.12279 70.2019V70.2019V70.2019C1.74569 70.2019 2.25326 69.7019 2.26267 69.0791L2.31549 65.5799C2.38961 60.6596 2.44099 60.215 3.20791 57.8531C3.61839 56.5887 4.60079 54.5273 5.23322 53.6033C5.61127 53.0509 5.68371 53.0066 6.00701 53.1301C6.5378 53.333 7.33224 53.2956 8.11024 53.0313C8.67514 52.8394 9.15624 52.4465 10.7333 50.8887L12.0052 49.6324C12.4091 49.2335 13.0043 49.0982 13.541 49.2833V49.2833C14.645 49.6642 15.853 49.8793 16.8876 49.8793C17.6545 49.8793 19.476 49.5879 19.9976 49.3817C20.2241 49.2922 20.2435 49.4319 20.2457 51.1697C20.2485 53.265 20.4653 54.5678 21.0107 55.7652V55.7652C21.2451 56.2801 21.3664 56.8393 21.3664 57.405V61.9113C21.3664 65.7108 21.4162 67.4455 21.5371 67.8569C21.7649 68.6321 22.9279 69.8012 23.699 70.0303C24.105 70.1508 25.7566 70.2019 29.2543 70.2019C35.034 70.2019 35.1587 70.1816 36.1486 69.0746C36.979 68.1462 37.0893 67.6679 37.0893 64.999C37.0893 62.8224 37.1016 62.7221 37.3679 62.7221C37.521 62.7221 38.6739 62.8156 39.9299 62.9299C44.2749 63.3254 48.1556 63.4273 58.8839 63.4274L68.542 63.4277C69.1585 63.4277 69.6583 62.9279 69.6583 62.3114V62.3114V62.3114C69.6583 61.6939 69.1595 61.1925 68.542 61.1893L57.0589 61.1303C42.5587 61.0556 40.767 60.9585 32.8778 59.8203C27.3521 59.0229 26.1469 58.6242 24.5854 57.0769C23.5906 56.0913 23.0594 55.156 22.7042 53.766C22.4548 52.7893 22.3909 48.0446 22.6272 48.0446C22.9063 48.0446 24.7252 46.1751 25.2818 45.3162C26.2644 43.8002 26.9817 41.5749 26.9817 40.0432C26.9817 39.5991 27.0153 39.5546 27.2976 39.6239C27.8931 39.7703 33.3686 40.4155 35.2263 40.5582C36.2477 40.6368 38.4064 40.7436 40.0235 40.796L42.3287 40.8705C42.7336 40.8835 43.1256 40.7279 43.4112 40.4408V40.4408C43.8393 40.0105 43.8547 39.9564 43.7621 39.2117C43.4205 36.4636 42.0812 33.7534 39.9773 31.5524C38.7221 30.2394 37.6095 29.4373 35.9393 28.6421C33.8697 27.6564 32.7273 27.4254 29.3973 27.3191V27.3191C28.2298 27.2818 27.6103 25.9235 28.3476 25.0174L29.304 23.8421L31.0729 21.6684C31.7082 20.8878 32.6085 20.3681 33.6022 20.2084V20.2084C37.6736 19.5539 43.8838 18.8851 49.0921 18.5401C50.4047 18.453 55.569 18.3487 60.5685 18.3081L68.5284 18.2433C69.1539 18.2382 69.6583 17.7297 69.6583 17.1041V17.1041V17.1041C69.6583 16.4815 69.151 15.9783 68.5285 15.9833L60.4281 16.0486C51.2534 16.1224 48.1405 16.2524 42.7047 16.7884C40.0811 17.0472 36.3578 17.5043 34.6418 17.7785C33.9518 17.8888 33.3565 17.948 33.3191 17.9102C33.2332 17.8238 35.8367 10.7928 36.4712 9.39787C37.7195 6.65348 40.1061 4.40727 42.9855 3.26666C44.9927 2.47168 45.2089 2.45997 57.9518 2.45997H68.5293C69.1529 2.45997 69.6583 1.95448 69.6583 1.33094V1.33094V1.33094C69.6583 0.707655 69.1526 0.202641 68.5293 0.203548L57.831 0.219122C51.3261 0.228578 45.6247 0.290675 45.1614 0.357146ZM28.1048 16.7909C28.1048 17.4338 28.1664 17.6356 28.4494 17.9199C28.7451 18.2173 28.9244 18.2664 29.7129 18.2664C30.3959 18.2664 30.6317 18.316 30.6317 18.4592C30.6317 18.5652 30.3 19.0694 29.8947 19.5798V19.5798C29.4289 20.1662 28.7215 20.5086 27.9727 20.5102L25.4375 20.5156C21.9647 20.5229 21.6869 20.5047 21.2598 20.2429C19.9978 19.4694 19.9298 17.7203 21.1311 16.9291C21.7363 16.5303 24.7684 16.0714 27.087 16.0275L27.3224 16.0231C27.7521 16.015 28.1048 16.3611 28.1048 16.7909V16.7909ZM33.1326 29.9621C35.1547 30.5654 37.2094 31.8253 38.5373 33.2762C39.7342 34.584 40.9269 36.7381 41.2249 38.1303V38.1303C41.2754 38.3661 41.0952 38.5882 40.8541 38.5874L40.7153 38.5869C38.4693 38.5794 32.2677 38.0746 29.649 37.6861L29.1101 37.6061C28.9514 37.5826 28.9343 37.3605 29.0875 37.3129V37.3129C29.9156 37.0556 31.0691 35.9115 31.3033 35.115C31.6922 33.7917 31.418 32.7368 30.4259 31.7394C29.0018 30.308 27.2086 30.3115 25.7702 31.7486C25.3276 32.1908 25.0109 32.6473 24.9484 32.9333V32.9333C24.9044 33.1349 24.6552 33.2086 24.5086 33.0634L24.1654 32.7235V32.7235C23.7596 32.3218 23.6612 31.7034 23.9221 31.1955L24.1308 30.7892V30.7892C24.5269 30.0182 25.3268 29.5392 26.1936 29.5541L28.4419 29.5927C31.6788 29.6483 32.2253 29.6914 33.1326 29.9621ZM49.5133 29.688C48.2498 29.9952 47.0813 30.9572 46.5009 32.1676C46.0921 33.0202 45.944 35.2338 46.2097 36.5199C46.7496 39.1346 48.9614 41.3417 51.5336 41.832C51.9964 41.9204 55.6537 41.9761 60.9737 41.9761H68.5293C69.1529 41.9761 69.6583 41.4706 69.6583 40.8471V40.8471V40.8471C69.6583 40.2268 69.1555 39.718 68.5353 39.718V39.718V39.718C67.915 39.718 67.4122 39.2152 67.4122 38.595V38.0245V37.454C67.4122 36.8338 67.915 36.3309 68.5353 36.3309V36.3309V36.3309C69.1555 36.3309 69.6583 35.8222 69.6583 35.2019V35.2019V35.2019C69.6583 34.5817 69.1555 34.0729 68.5353 34.0729V34.0729V34.0729C67.915 34.0729 67.4122 33.5641 67.4122 32.9438V32.9438V32.9438C67.4122 32.3236 67.915 31.8148 68.5353 31.8148V31.8148V31.8148C69.1555 31.8148 69.6583 31.306 69.6583 30.6858V30.6858V30.6858C69.6583 30.0625 69.1526 29.5575 68.5293 29.5584L59.7964 29.5711C54.3724 29.5792 49.7449 29.6317 49.5133 29.688ZM19.2707 32.2282C20.9257 32.745 22.7301 34.1607 23.579 35.6084C24.9641 37.971 25.0764 40.7161 23.8892 43.1947C22.7031 45.6713 20.2739 47.338 17.5084 47.573C16.5269 47.6564 14.6997 47.4288 14.5628 47.2061C14.5289 47.1509 14.8929 46.7211 15.3717 46.2512L15.5043 46.1211C15.9811 45.6532 16.6074 45.3684 17.2734 45.3165V45.3165C19.3151 45.1576 20.9709 44.0195 21.8949 42.1398C22.3898 41.1333 22.4193 40.9977 22.4193 39.7254C22.4193 38.5046 22.3773 38.2883 21.9749 37.4346C21.3567 36.1225 20.5609 35.3054 19.2831 34.6706C18.2808 34.1725 18.1481 34.1434 16.8741 34.1434C15.6001 34.1434 15.4675 34.1725 14.4651 34.6706C12.5954 35.5995 11.4633 37.2641 11.3052 39.3167V39.3167C11.2536 39.9864 10.9691 40.617 10.5012 41.0989L10.3755 41.2284C9.90799 41.7098 9.47898 42.0747 9.42199 42.0393C9.36513 42.004 9.24215 41.5195 9.1488 40.9628C8.47468 36.9451 11.182 32.9402 15.1895 32.0265C16.3499 31.762 18.046 31.8459 19.2707 32.2282ZM51.6892 32.9438V32.9438C51.6892 33.5674 51.1838 34.0729 50.5602 34.0729H50.0046C48.1745 34.0729 48.1686 34.0698 48.4698 33.2706C48.8295 32.3162 49.6402 31.8288 50.882 31.8203V31.8203C51.327 31.8173 51.6892 32.1771 51.6892 32.622V32.9438ZM56.1815 32.9438V32.9438C56.1815 33.5641 55.6787 34.0729 55.0585 34.0729V34.0729V34.0729C54.4382 34.0729 53.9354 33.5641 53.9354 32.9438V32.9438V32.9438C53.9354 32.3236 54.4382 31.8148 55.0585 31.8148V31.8148V31.8148C55.6787 31.8148 56.1815 32.3236 56.1815 32.9438V32.9438ZM60.6738 32.9438V32.9438C60.6738 33.5641 60.171 34.0729 59.5507 34.0729V34.0729V34.0729C58.9305 34.0729 58.4277 33.5641 58.4277 32.9438V32.9438V32.9438C58.4277 32.3236 58.9305 31.8148 59.5507 31.8148V31.8148V31.8148C60.171 31.8148 60.6738 32.3236 60.6738 32.9438V32.9438ZM65.1661 32.9438V32.9438C65.1661 33.5641 64.6633 34.0729 64.043 34.0729V34.0729V34.0729C63.4227 34.0729 62.9199 33.5641 62.9199 32.9438V32.9438V32.9438C62.9199 32.3236 63.4227 31.8148 64.043 31.8148V31.8148V31.8148C64.6633 31.8148 65.1661 32.3236 65.1661 32.9438V32.9438ZM28.8832 33.2903C29.5797 33.9903 29.0862 35.2019 28.1048 35.2019C27.8313 35.2019 27.5435 35.0739 27.3264 34.8554C27.1091 34.6371 26.9817 34.3478 26.9817 34.0729C26.9817 33.798 27.1091 33.5086 27.3264 33.2903C27.5435 33.0718 27.8313 32.9438 28.1048 32.9438C28.3783 32.9438 28.666 33.0718 28.8832 33.2903ZM33.9237 33.1424C32.5074 33.7625 32.1728 35.6554 33.2824 36.771C34.8596 38.3566 37.4442 36.9364 37.0293 34.712C36.7809 33.3818 35.2009 32.5831 33.9237 33.1424ZM18.0146 36.5484C18.3525 36.6681 18.8952 37.0285 19.2206 37.3493C20.5203 38.6302 20.5819 40.5702 19.3645 41.8808C19.0371 42.2334 18.8567 42.3567 18.9156 42.1878C19.149 41.5174 19.1457 40.5734 18.9073 39.8521C18.3081 38.0385 16.2926 37.0601 14.4174 37.6728C14.2433 37.7297 14.3607 37.5542 14.7261 37.2113C15.6445 36.3494 16.7969 36.1173 18.0146 36.5484ZM51.6892 37.9504V39.1931C51.6892 39.3749 51.5071 39.5002 51.3373 39.4354V39.4354C50.634 39.1665 50.2045 38.8876 49.6753 38.3556C49.1461 37.8235 48.8687 37.3918 48.6012 36.6847V36.6847C48.5366 36.5138 48.6629 36.3309 48.8457 36.3309H50.0783V36.3309C50.968 36.3309 51.6892 37.0607 51.6892 37.9504V37.9504ZM56.1815 38.0245V38.595C56.1815 39.2152 55.6787 39.718 55.0585 39.718V39.718V39.718C54.4382 39.718 53.9354 39.2152 53.9354 38.595V38.0245V37.454C53.9354 36.8338 54.4382 36.3309 55.0585 36.3309V36.3309V36.3309C55.6787 36.3309 56.1815 36.8338 56.1815 37.454V38.0245ZM60.6738 38.0245V38.595C60.6738 39.2152 60.171 39.718 59.5507 39.718V39.718V39.718C58.9305 39.718 58.4277 39.2152 58.4277 38.595V38.0245V37.454C58.4277 36.8338 58.9305 36.3309 59.5507 36.3309V36.3309V36.3309C60.171 36.3309 60.6738 36.8338 60.6738 37.454V38.0245ZM65.1661 38.0245V38.595C65.1661 39.2152 64.6633 39.718 64.043 39.718V39.718V39.718C63.4227 39.718 62.9199 39.2152 62.9199 38.595V38.0245V37.454C62.9199 36.8338 63.4227 36.3309 64.043 36.3309V36.3309V36.3309C64.6633 36.3309 65.1661 36.8338 65.1661 37.454V38.0245ZM16.4638 40.1306C16.752 40.4204 16.8741 40.6821 16.8741 41.0104C16.8741 41.4359 16.4514 41.9024 12.1339 46.243C7.81628 50.5834 7.35217 51.0084 6.92891 51.0084C6.29045 51.0084 5.64342 50.3579 5.64342 49.716C5.64342 49.2905 6.06612 48.824 10.3836 44.4834C14.7013 40.143 15.1654 39.718 15.5886 39.718C15.9151 39.718 16.1754 39.8408 16.4638 40.1306ZM35.307 43.3167C35.1379 43.4358 34.8749 43.9261 34.7054 44.4381C34.2448 45.8295 33.5769 46.4922 32.6353 46.4922C32.417 46.4922 32.1135 46.5802 31.9609 46.6877C31.7249 46.8538 31.2829 46.8546 29.0166 46.6931C25.4094 46.4358 25.4836 46.4331 25.0802 46.8387V46.8387C24.8595 47.0605 24.7356 47.3607 24.7356 47.6736V50.4828C24.7356 54.3154 24.8292 54.7792 25.7997 55.7548C26.2235 56.181 26.6174 56.4187 27.1465 56.5679C27.6494 56.7095 30.7352 56.9469 36.5696 57.2924C44.5714 57.7662 45.2716 57.7886 45.5871 57.5809C45.7752 57.457 45.9695 57.1935 46.019 56.9955C46.1527 56.46 43.7856 48.1931 43.4094 47.8815C43.2155 47.7208 42.7082 47.6162 41.7877 47.5467C40.5115 47.4505 40.4386 47.4273 40.248 47.0566C40.0298 46.6326 39.7806 46.4922 39.2469 46.4922C38.3615 46.4922 37.663 45.7936 37.2359 44.481C36.9077 43.4722 36.5691 43.1051 35.9663 43.1051C35.769 43.1051 35.4724 43.2004 35.307 43.3167ZM36.2529 47.4166C36.402 47.5974 36.3929 47.6763 36.1999 47.8702C35.982 48.0894 35.9506 48.0894 35.7327 47.8702C35.5397 47.6763 35.5305 47.5974 35.6796 47.4166C35.779 47.2964 35.908 47.1979 35.9663 47.1979C36.0245 47.1979 36.1536 47.2964 36.2529 47.4166ZM47.5218 47.9875C47.1703 48.3409 47.1607 48.3949 47.2478 49.5337C47.4365 52.0015 48.3926 54.0459 50.2148 55.8777C51.4916 57.1613 52.6625 57.9021 54.2863 58.4533V58.4533C55.0302 58.7058 55.8098 58.8372 56.5954 58.8423L62.5339 58.8814L68.521 58.9206C69.1479 58.9247 69.6583 58.4177 69.6583 57.7907V57.7907V57.7907C69.6583 57.1627 69.1492 56.6535 68.5211 56.6535H63.0828C56.9699 56.6535 56.4301 56.6336 55.411 56.3717C53.9987 56.0086 52.7724 55.3126 51.7712 54.306C50.8527 53.3827 50.3726 52.6162 49.9104 51.3363C49.3193 49.6994 48.1197 49.8793 59.6209 49.8793H68.5293C69.1529 49.8793 69.6583 49.3738 69.6583 48.7503V48.7503V48.7503C69.6583 48.1267 69.1529 47.6213 68.5293 47.6213H58.7723H48.4027C48.072 47.6213 47.755 47.7531 47.5218 47.9875V47.9875ZM31.0529 49.1002C34.355 49.335 34.1942 49.2602 34.7037 50.7992C35.0246 51.7686 35.3725 52.1374 35.9663 52.1374C36.5529 52.1374 36.9083 51.7675 37.2205 50.8321C37.6733 49.4748 37.4973 49.5587 39.6533 49.6736C40.6986 49.7293 41.6291 49.8216 41.721 49.8788C41.8944 49.9864 43.4503 55.2453 43.3412 55.355C43.2873 55.4093 36.5456 55.0398 30.8423 54.6701C29.7613 54.6 28.6352 54.5412 28.3397 54.5395C27.9355 54.5373 27.7008 54.4344 27.3921 54.1241V54.1241C27.1293 53.8599 26.9817 53.5023 26.9817 53.1297V51.3015V49.4881C26.9817 49.1589 27.2492 48.8924 27.5784 48.8935V48.8935C27.9066 48.8947 29.47 48.9877 31.0529 49.1002ZM25.6121 60.5353C26.7476 61.0721 28.1945 61.3949 31.9653 61.9525C33.3551 62.1581 34.5713 62.3498 34.6677 62.3786C34.7993 62.4178 34.8432 63.0349 34.8432 64.841C34.8432 67.2117 34.8376 67.2567 34.4986 67.5974V67.5974C34.2781 67.8191 33.9782 67.9438 33.6655 67.9438H29.2279H24.7903C24.4775 67.9438 24.1777 67.8191 23.9572 67.5974V67.5974V67.5974C23.7364 67.3756 23.6125 67.0754 23.6125 66.7624V63.2763V59.9196C23.6125 59.6668 23.9024 59.5238 24.103 59.6776V59.6776C24.3728 59.8845 25.052 60.2705 25.6121 60.5353Z" fill="white"/>
<path fill-rule="evenodd" clip-rule="evenodd" d="M7.11111 17.4839C6.92159 17.6744 6.76647 17.9468 6.76647 18.0892C6.76647 18.5231 6.35023 19.9952 6.05093 20.6202C5.36474 22.0528 3.9915 23.2664 2.48673 23.7698C1.51795 24.094 1.15112 24.443 1.15112 25.0407C1.15112 25.6224 1.51738 25.9925 2.32768 26.2293C4.58659 26.8895 6.30868 29.0242 6.71495 31.6675C6.97746 33.3759 8.80161 33.3759 9.06413 31.6675C9.4704 29.0242 11.1925 26.8895 13.4514 26.2293C14.2617 25.9925 14.628 25.6224 14.628 25.0407C14.628 24.443 14.2611 24.094 13.2923 23.7698C11.7876 23.2664 10.4143 22.0528 9.72814 20.6202C9.42884 19.9952 9.01261 18.5231 9.01261 18.0892C9.01261 17.674 8.37948 17.1375 7.88954 17.1375C7.61607 17.1375 7.32828 17.2655 7.11111 17.4839ZM8.35778 22.7106C8.57664 23.059 9.17018 23.7258 9.67668 24.1922V24.1922C10.1726 24.6491 10.1726 25.432 9.67668 25.8889V25.8889C9.17018 26.3553 8.57664 27.0221 8.35778 27.3704C8.13892 27.7188 7.9282 28.0037 7.8896 28.0037C7.85099 28.0037 7.64028 27.7188 7.42142 27.3704C7.20256 27.0221 6.60902 26.3553 6.10251 25.8889V25.8889C5.60664 25.432 5.60664 24.6491 6.10251 24.1922V24.1922C6.60902 23.7258 7.20256 23.059 7.42142 22.7106C7.64028 22.3623 7.85099 22.0774 7.8896 22.0774C7.9282 22.0774 8.13892 22.3623 8.35778 22.7106Z" fill="#DB3138"/>
</svg>
