<svg width="24" height="25" viewBox="0 0 24 25" fill="none" xmlns="http://www.w3.org/2000/svg">
<path d="M12 2.47363C9.81276 2.47621 7.71584 3.34624 6.16923 4.89285C4.62261 6.43947 3.75259 8.53639 3.75001 10.7236C3.74739 12.5111 4.33124 14.25 5.41201 15.6736C5.41201 15.6736 5.63701 15.9699 5.67376 16.0126L12 23.4736L18.3293 16.0089C18.3623 15.9691 18.588 15.6736 18.588 15.6736L18.5888 15.6714C19.669 14.2483 20.2526 12.5102 20.25 10.7236C20.2474 8.53639 19.3774 6.43947 17.8308 4.89285C16.2842 3.34624 14.1873 2.47621 12 2.47363ZM12 13.7236C11.4067 13.7236 10.8266 13.5477 10.3333 13.218C9.83995 12.8884 9.45543 12.4199 9.22837 11.8717C9.00131 11.3235 8.9419 10.7203 9.05765 10.1384C9.17341 9.55642 9.45913 9.02187 9.87869 8.60231C10.2982 8.18275 10.8328 7.89703 11.4147 7.78128C11.9967 7.66552 12.5999 7.72493 13.1481 7.95199C13.6962 8.17906 14.1648 8.56357 14.4944 9.05692C14.8241 9.55027 15 10.1303 15 10.7236C14.999 11.519 14.6826 12.2815 14.1202 12.8439C13.5578 13.4063 12.7954 13.7226 12 13.7236Z" fill="white"/>
</svg>
