<svg width="24" height="24" viewBox="0 0 24 24" fill="none" xmlns="http://www.w3.org/2000/svg">
<path d="M2.57141 8.67764L11.7034 13.4271C11.795 13.4747 11.8967 13.4996 12 13.4996C12.1032 13.4996 12.205 13.4747 12.2966 13.4271L21.4286 8.6785V16.9285C21.4286 17.64 21.1564 18.3246 20.6677 18.8418C20.179 19.359 19.511 19.6696 18.8006 19.7099L18.6428 19.7142H5.35713C4.64558 19.7143 3.96099 19.442 3.44378 18.9534C2.92658 18.4647 2.61598 17.7966 2.5757 17.0862L2.57141 16.9285V8.67764ZM5.35713 4.28564H18.6428C19.3544 4.2856 20.039 4.55783 20.5562 5.04651C21.0734 5.53518 21.384 6.20324 21.4243 6.91364L21.4286 7.07136V7.22907L12 12.1319L2.57141 7.22907V7.07136C2.57136 6.35981 2.8436 5.67522 3.33227 5.15802C3.82094 4.64082 4.48901 4.33021 5.19941 4.28993L5.35713 4.28564H18.6428H5.35713Z" fill="white"/>
</svg>
