<svg width="70" height="71" viewBox="0 0 70 71" fill="none" xmlns="http://www.w3.org/2000/svg">
<path fill-rule="evenodd" clip-rule="evenodd" d="M45.3829 1.0159C41.1862 1.61527 37.2548 4.32693 35.1009 8.10806C34.7801 8.67116 33.8845 10.8273 33.1106 12.8995L31.7037 16.6671H31.1018H30.4998V15.8845C30.4998 15.2417 30.4379 15.0399 30.1535 14.7555C29.8248 14.4265 29.7229 14.4092 28.1432 14.4106C26.3039 14.4123 23.1997 14.7149 21.702 15.0385C19.9846 15.4096 18.9214 16.2786 18.3648 17.7662C17.6165 19.7653 18.5228 22.0262 20.4521 22.974C21.2436 23.363 21.3197 23.3721 24.3056 23.4413L27.3516 23.5119L25.6677 25.5582C23.7705 27.8637 22.8466 29.1692 22.1881 30.4745C21.8264 31.1915 21.6898 31.3474 21.4984 31.2618C21.3671 31.2033 20.72 30.9625 20.0605 30.7268C18.9642 30.3352 18.7041 30.2978 17.0274 30.2923C14.9407 30.2852 13.8582 30.5412 12.0899 31.4603C10.7194 32.1724 8.72997 34.1603 8.03928 35.5078C6.66636 38.186 6.45603 40.8628 7.39373 43.7204L7.69012 44.6238L5.8521 46.4872C4.84103 47.5121 3.9053 48.5641 3.77269 48.8252C3.40111 49.556 3.33805 50.6602 3.61963 51.5081L3.86072 52.2343L3.30095 53.1212C1.96401 55.2388 0.977348 57.6438 0.435066 60.1068C0.170979 61.3061 0.125413 62.0565 0.0667271 66.1681L0 70.8607H1.12829H2.25673L2.32684 66.2387C2.40133 61.3184 2.45296 60.8738 3.22364 58.5119C3.63613 57.2475 4.62336 55.186 5.25889 54.262C5.63879 53.7097 5.71159 53.6654 6.03648 53.7888C6.56987 53.9918 7.3682 53.9544 8.15002 53.6901C8.71769 53.4981 9.20115 53.1052 10.786 51.5474L12.7268 49.6398L13.6074 49.9421C14.7168 50.323 15.9307 50.5381 16.9704 50.5381C17.7411 50.5381 19.5715 50.2466 20.0957 50.0405C20.3233 49.951 20.3427 50.0907 20.345 51.8284C20.3478 53.9238 20.5656 55.2265 21.1137 56.424L21.4712 57.2053V62.57C21.4712 66.3695 21.5213 68.1043 21.6427 68.5157C21.8717 69.2909 23.0403 70.46 23.8152 70.689C24.2232 70.8096 25.8829 70.8607 29.3977 70.8607C35.2058 70.8607 35.3311 70.8403 36.3259 69.7333C37.1604 68.805 37.2713 68.3267 37.2713 65.6578C37.2713 63.4812 37.2835 63.3808 37.5511 63.3808C37.7051 63.3808 38.8635 63.4744 40.1257 63.5887C44.492 63.9841 48.3918 64.086 59.1727 64.0862L70 64.0865V62.9701V61.8538L57.3388 61.789C42.7674 61.7144 40.9669 61.6173 33.0391 60.4791C27.4862 59.6817 26.2751 59.283 24.706 57.7357C23.7063 56.75 23.1725 55.8148 22.8156 54.4248C22.5649 53.448 22.5007 48.7034 22.7381 48.7034C23.0186 48.7034 24.8465 46.8339 25.4058 45.9749C26.3932 44.4589 27.1141 42.2336 27.1141 40.7019C27.1141 40.2578 27.1478 40.2134 27.4315 40.2827C28.0299 40.429 33.5323 41.0742 35.3991 41.2169C36.4255 41.2955 38.5948 41.4024 40.2198 41.4547L43.1741 41.5497L43.6242 41.0995C44.0543 40.6692 44.0698 40.6152 43.9767 39.8704C43.6335 37.1223 42.2876 34.4121 40.1734 32.2112C38.9121 30.8981 37.7939 30.0961 36.1156 29.3008C34.0358 28.3152 32.8879 28.0842 29.5415 27.9779L26.6789 27.8869L29.4477 24.5009L32.2165 21.1151L33.767 20.8671C37.8584 20.2127 44.099 19.5439 49.3329 19.1988C50.652 19.1117 55.8416 19.0075 60.8656 18.9668L70 18.8929V17.7628V16.633L60.7245 16.7073C51.5047 16.7811 48.3766 16.9111 42.9141 17.4471C40.2776 17.706 36.5361 18.1631 34.8117 18.4373C34.1183 18.5475 33.5202 18.6068 33.4825 18.569C33.3961 18.4826 36.0125 11.4515 36.6501 10.0566C37.9045 7.31223 40.3028 5.06602 43.1963 3.92541C45.2133 3.13043 45.4306 3.11872 58.236 3.11872H70V1.98969V0.860657L58.1147 0.877874C51.5778 0.88733 45.8484 0.949427 45.3829 1.0159ZM28.2426 17.4497C28.2426 18.0925 28.3046 18.2943 28.589 18.5787C28.8861 18.8761 29.0662 18.9252 29.8586 18.9252C30.5449 18.9252 30.7819 18.9747 30.7819 19.118C30.7819 19.2239 30.4486 19.7282 30.0413 20.2385L29.3007 21.1664L25.5623 21.1743C22.0724 21.1817 21.7932 21.1635 21.3641 20.9017C20.0959 20.1282 20.0276 18.379 21.2347 17.5878C21.8429 17.189 24.8899 16.7302 27.2199 16.6863L28.2426 16.6671V17.4497ZM33.2951 30.6208C35.3271 31.2241 37.3919 32.484 38.7263 33.935C39.9291 35.2428 41.1276 37.3968 41.4271 38.7891L41.5259 39.2478L40.915 39.2456C38.658 39.2382 32.426 38.7333 29.7944 38.3448L28.5953 38.1678L29.2301 37.9717C30.0623 37.7144 31.2215 36.5703 31.4568 35.7737C31.8476 34.4505 31.5721 33.3956 30.5751 32.3982C29.1441 30.9667 27.342 30.9703 25.8966 32.4074C25.4518 32.8495 25.1336 33.3061 25.0708 33.592L24.9688 34.0572L24.2839 33.3823L23.599 32.7074L24.2492 31.448L24.8994 30.1885L28.5814 30.2515C31.8342 30.3071 32.3834 30.3501 33.2951 30.6208ZM49.7561 30.3467C48.4865 30.654 47.3122 31.6159 46.729 32.8264C46.3182 33.6789 46.1694 35.8926 46.4363 37.1787C46.9789 39.7934 49.2016 42.0005 51.7863 42.4908C52.2514 42.5791 55.9266 42.6348 61.2727 42.6348H70V41.5058V40.3768H68.8714H67.7428V38.6832V36.9897H68.8714H70V35.8607V34.7316H68.8714H67.7428V33.6026V32.4736H68.8714H70V31.3445V30.2155L60.0897 30.2299C54.6391 30.2379 49.9889 30.2904 49.7561 30.3467ZM19.3653 32.8869C21.0284 33.4037 22.8416 34.8194 23.6946 36.2671C25.0866 38.6297 25.1994 41.3749 24.0064 43.8535C22.8145 46.33 20.3734 47.9968 17.5942 48.2317C16.608 48.3152 14.7718 48.0875 14.6343 47.8648C14.6001 47.8096 14.9659 47.3799 15.4471 46.9099L16.322 46.0555L17.3581 45.9752C19.4098 45.8163 21.0738 44.6783 22.0023 42.7986C22.4996 41.792 22.5292 41.6564 22.5292 40.3841C22.5292 39.1634 22.487 38.947 22.0827 38.0933C21.4614 36.7812 20.6617 35.9641 19.3777 35.3293C18.3704 34.8313 18.2371 34.8022 16.9569 34.8022C15.6766 34.8022 15.5433 34.8313 14.5361 35.3293C12.6571 36.2582 11.5195 37.9228 11.3607 39.9754L11.2804 41.0119L10.4264 41.8871C9.95659 42.3685 9.52547 42.7335 9.4682 42.6981C9.41106 42.6628 9.28748 42.1783 9.19367 41.6215C8.51624 37.6039 11.2368 33.5989 15.264 32.6853C16.4301 32.4208 18.1345 32.5046 19.3653 32.8869ZM51.9428 33.6026V34.7316H50.2499C48.4107 34.7316 48.4048 34.7285 48.7076 33.9293C49.069 32.975 49.8837 32.4875 51.1316 32.4791L51.9428 32.4736V33.6026ZM56.4571 33.6026V34.7316H55.3285H54.1999V33.6026V32.4736H55.3285H56.4571V33.6026ZM60.9714 33.6026V34.7316H59.8428H58.7142V33.6026V32.4736H59.8428H60.9714V33.6026ZM65.4857 33.6026V34.7316H64.3571H63.2285V33.6026V32.4736H64.3571H65.4857V33.6026ZM29.0249 33.9491C29.7247 34.6491 29.2289 35.8607 28.2426 35.8607C27.9678 35.8607 27.6786 35.7327 27.4604 35.5142C27.242 35.2959 27.1141 35.0065 27.1141 34.7316C27.1141 34.4567 27.242 34.1674 27.4604 33.9491C27.6786 33.7306 27.9678 33.6026 28.2426 33.6026C28.5175 33.6026 28.8066 33.7306 29.0249 33.9491ZM34.0901 33.8012C32.6668 34.4213 32.3306 36.3141 33.4457 37.4297C35.0306 39.0153 37.6279 37.5951 37.2109 35.3708C36.9613 34.0405 35.3736 33.2419 34.0901 33.8012ZM18.1029 37.2072C18.4425 37.3268 18.9879 37.6873 19.3149 38.0081C20.6209 39.289 20.6829 41.2289 19.4595 42.5396C19.1305 42.8921 18.9492 43.0155 19.0083 42.8465C19.2429 42.1762 19.2396 41.2322 19 40.5109C18.3979 38.6972 16.3725 37.7189 14.4881 38.3315C14.3132 38.3884 14.4311 38.213 14.7983 37.8701C15.7212 37.0082 16.8793 36.776 18.1029 37.2072ZM51.9428 38.6091V40.2286L51.5891 40.0941C50.8823 39.8253 50.4508 39.5464 49.9189 39.0143C49.3871 38.4823 49.1083 38.0506 48.8396 37.3435L48.7052 36.9897H50.324H51.9428V38.6091ZM56.4571 38.6832V40.3768H55.3285H54.1999V38.6832V36.9897H55.3285H56.4571V38.6832ZM60.9714 38.6832V40.3768H59.8428H58.7142V38.6832V36.9897H59.8428H60.9714V38.6832ZM65.4857 38.6832V40.3768H64.3571H63.2285V38.6832V36.9897H64.3571H65.4857V38.6832ZM16.5445 40.7893C16.8341 41.0792 16.9569 41.3408 16.9569 41.6691C16.9569 42.0946 16.5321 42.5612 12.1934 46.9017C7.85461 51.2422 7.38823 51.6671 6.9629 51.6671C6.3213 51.6671 5.6711 51.0166 5.6711 50.3748C5.6711 49.9493 6.09587 49.4827 10.4345 45.1421C14.7734 40.8017 15.2397 40.3768 15.6651 40.3768C15.9932 40.3768 16.2548 40.4996 16.5445 40.7893ZM35.4802 43.9754C35.3102 44.0945 35.046 44.5848 34.8756 45.0968C34.4127 46.4882 33.7416 47.151 32.7953 47.151C32.576 47.151 32.271 47.2389 32.1176 47.3464C31.8805 47.5126 31.4364 47.5134 29.1589 47.3518C25.5341 47.0945 25.6085 47.0918 25.2032 47.4974L24.8569 47.8438V51.1415C24.8569 54.9742 24.951 55.4379 25.9262 56.4136C26.3521 56.8398 26.748 57.0774 27.2797 57.2266C27.785 57.3683 30.8859 57.6057 36.749 57.9512C44.79 58.4249 45.4937 58.4474 45.8106 58.2396C45.9997 58.1157 46.1949 57.8522 46.2447 57.6542C46.379 57.1188 44.0004 48.8519 43.6223 48.5403C43.4275 48.3795 42.9177 48.2749 41.9927 48.2055C40.7102 48.1092 40.637 48.0861 40.4454 47.7154C40.2262 47.2914 39.9758 47.151 39.4394 47.151C38.5497 47.151 37.8477 46.4524 37.4185 45.1397C37.0887 44.131 36.7484 43.7639 36.1427 43.7639C35.9445 43.7639 35.6464 43.8591 35.4802 43.9754ZM36.4308 48.0754C36.5806 48.2562 36.5714 48.3351 36.3774 48.529C36.1585 48.7481 36.1269 48.7481 35.9079 48.529C35.714 48.3351 35.7048 48.2562 35.8546 48.0754C35.9545 47.9551 36.0841 47.8566 36.1427 47.8566C36.2012 47.8566 36.3309 47.9551 36.4308 48.0754ZM47.7549 48.6462C47.4016 48.9996 47.3921 49.0537 47.4795 50.1925C47.6691 52.6602 48.63 54.7046 50.4611 56.5365C51.7441 57.82 52.9208 58.5608 54.5526 59.1121L55.6812 59.4933L62.8406 59.5401L70 59.5868V58.4495V57.3123H63.3922C57.2493 57.3123 56.7069 57.2924 55.6827 57.0304C54.2635 56.6673 53.0313 55.9714 52.0252 54.9647C51.1021 54.0415 50.6196 53.275 50.1552 51.9951C49.5612 50.3581 48.3557 50.5381 59.9133 50.5381H70V49.409V48.28H59.0606H48.121L47.7549 48.6462ZM31.2052 49.7589C34.5235 49.9937 34.3619 49.9189 34.8739 51.458C35.1964 52.4274 35.5459 52.7961 36.1427 52.7961C36.7322 52.7961 37.0893 52.4262 37.403 51.4908C37.8581 50.1336 37.6812 50.2174 39.8478 50.3323C40.8982 50.3881 41.8333 50.4804 41.9257 50.5375C42.0999 50.6452 43.6634 55.9041 43.5538 56.0137C43.4996 56.0681 36.7249 55.6986 30.9935 55.3288C29.9073 55.2587 28.7756 55.2 28.4787 55.1983C28.0725 55.196 27.8366 55.0932 27.5264 54.7828L27.1141 54.3703V51.9602V49.5502L27.7136 49.5523C28.0434 49.5534 29.6146 49.6464 31.2052 49.7589ZM25.7378 61.194C26.8788 61.7309 28.3328 62.0536 32.1221 62.6112C33.5187 62.8169 34.7408 63.0085 34.8378 63.0373C34.9699 63.0765 35.0141 63.6937 35.0141 65.4997C35.0141 67.8704 35.0085 67.9154 34.6678 68.2561L34.3216 68.6026H29.3712H24.4209L24.0747 68.2561L23.7283 67.9098V63.935V59.9603L24.2212 60.3364C24.4924 60.5433 25.1749 60.9293 25.7378 61.194Z" fill="white"/>
<path fill-rule="evenodd" clip-rule="evenodd" d="M7.14596 18.1427C6.95551 18.3332 6.79962 18.6056 6.79962 18.748C6.79962 19.1818 6.38134 20.6539 6.08058 21.279C5.39102 22.7116 4.01105 23.9252 2.4989 24.4286C1.52536 24.7527 1.15674 25.1017 1.15674 25.6994C1.15674 26.2812 1.5248 26.6512 2.33906 26.888C4.60906 27.5482 6.33959 29.6829 6.74785 32.3263C7.01166 34.0347 8.84475 34.0347 9.10855 32.3263C9.51681 29.6829 11.2473 27.5482 13.5173 26.888C14.3316 26.6512 14.6997 26.2812 14.6997 25.6994C14.6997 25.1017 14.331 24.7527 13.3575 24.4286C11.8454 23.9252 10.4654 22.7116 9.77582 21.279C9.47506 20.6539 9.05678 19.1818 9.05678 18.748C9.05678 18.3328 8.42054 17.7962 7.9282 17.7962C7.65339 17.7962 7.36419 17.9242 7.14596 18.1427ZM8.39874 23.3694C8.61868 23.7177 9.21513 24.3845 9.72412 24.851L10.6494 25.6993L9.72412 26.5476C9.21513 27.014 8.61868 27.6809 8.39874 28.0292C8.17881 28.3775 7.96706 28.6624 7.92827 28.6624C7.88947 28.6624 7.67773 28.3775 7.45779 28.0292C7.23786 27.6809 6.64141 27.014 6.13242 26.5476L5.20713 25.6993L6.13242 24.851C6.64141 24.3845 7.23786 23.7177 7.45779 23.3694C7.67773 23.0211 7.88947 22.7361 7.92827 22.7361C7.96706 22.7361 8.17881 23.0211 8.39874 23.3694Z" fill="#DB3138"/>
</svg>
