<svg width="80" height="80" viewBox="0 0 80 80" fill="none" xmlns="http://www.w3.org/2000/svg">
<rect width="80" height="80" rx="40" fill="#DB3138"/>
<path fill-rule="evenodd" clip-rule="evenodd" d="M41.7144 58.3125L41.7144 38.7214C41.7144 34.7385 46.7676 33.0263 49.1887 36.189V36.189C49.9156 37.1404 50.9973 36.9845 51.6024 35.845C52.2093 34.7028 52.1099 33.0097 51.383 32.0583L41.0972 18.6208C41.0167 18.516 40.9224 18.4649 40.8332 18.387C40.7612 18.3225 40.6995 18.2446 40.6207 18.1962C40.4235 18.0752 40.2161 18.0027 40.0069 18.0027C40.0052 18.0027 40.0018 18 40.0001 18C39.9984 18 39.9949 18.0027 39.9932 18.0027C39.7841 18.0027 39.5766 18.0752 39.3795 18.1962C39.3006 18.2446 39.2389 18.3225 39.1669 18.387C39.0778 18.4649 38.9835 18.516 38.9029 18.6208L28.6171 32.0583C28.2109 32.5931 28 33.3564 28 34.125C28 34.7324 28.1303 35.3424 28.3977 35.845C29.0029 36.9845 30.0846 37.1404 30.8114 36.189V36.189C33.2325 33.0263 38.2858 34.7385 38.2858 38.7215L38.2858 58.3125C38.2858 59.796 39.0538 61 40.0001 61C40.9464 61 41.7144 59.796 41.7144 58.3125" fill="white"/>
</svg>
