<?xml version="1.0" encoding="UTF-8"?> <!-- Creator: CorelDRAW 2018 (64-Bit) --> <svg xmlns="http://www.w3.org/2000/svg" xmlns:xlink="http://www.w3.org/1999/xlink" xml:space="preserve" width="1217px" height="591px" style="shape-rendering:geometricPrecision; text-rendering:geometricPrecision; image-rendering:optimizeQuality; fill-rule:evenodd; clip-rule:evenodd" viewBox="0 0 1217 591"> <defs> <style type="text/css"> <![CDATA[ .fil0 {fill:#CF142B;fill-rule:nonzero} ]]> </style> </defs> <g id="Слой_x0020_1"> <metadata id="CorelCorpID_0Corel-Layer"></metadata> <path class="fil0" d="M809 476c23,0 35,-12 35,-25 0,-29 -45,-20 -45,-32 0,-4 3,-7 13,-7 7,0 14,2 22,6l7 -17c-8,-5 -18,-7 -29,-7 -23,0 -35,11 -35,26 0,29 45,20 45,33 0,4 -4,6 -13,6 -9,0 -19,-3 -26,-8l-7 16c7,5 20,9 33,9z"></path> <polygon id="1" class="fil0" points="939,396 939,425 909,425 909,396 887,396 887,475 909,475 909,444 939,444 939,475 962,475 962,396 "></polygon> <path id="2" class="fil0" d="M1050 476c25,0 44,-17 44,-41 0,-24 -19,-41 -44,-41 -25,0 -44,17 -44,41 0,24 19,41 44,41zm0 -18c-12,0 -21,-9 -21,-23 0,-14 9,-23 21,-23 12,0 21,9 21,23 0,14 -9,23 -21,23z"></path> <path id="3" class="fil0" d="M1174 396l-36 0 0 79 22 0 0 -21 14 0c22,0 35,-11 35,-29 0,-18 -14,-29 -35,-29zm-1 41l-12 0 0 -23 12 0c9,0 14,4 14,12 0,7 -5,12 -14,12z"></path> </g> <g id="Слой_x0020_1_0"> <metadata id="CorelCorpID_1Corel-Layer"></metadata> <path class="fil0" d="M7 271c0,-18 14,-33 37,-33 15,0 26,5 33,13l-14 19c-5,-5 -9,-8 -17,-8 -7,0 -11,3 -11,8 0,19 47,14 47,51 0,20 -17,33 -39,33 -15,0 -33,-7 -38,-19l15 -18c6,8 16,12 24,12 7,0 11,-3 11,-9 0,-17 -47,-15 -47,-52z"></path> <polygon class="fil0" points="530,240 624,240 624,264 530,264 "></polygon> <path class="fil0" d="M892 331c22,0 33,-15 33,-34 0,-21 -14,-34 -33,-34 -19,0 -33,14 -33,34 0,19 15,34 33,34zm0 -93c35,0 60,23 60,59 0,34 -26,59 -60,59 -35,0 -60,-23 -60,-59 0,-33 24,-59 60,-59z"></path> <polygon class="fil0" points="1012,240 1038,240 1038,329 1085,330 1085,354 1012,354 "></polygon> <polygon class="fil0" points="1140,240 1166,240 1166,330 1212,330 1212,354 1140,354 "></polygon> <path class="fil0" d="M432 563c-119,0 -220,-78 -254,-185l-28 0c36,122 148,212 282,212 133,0 246,-89 282,-211l-28 0c-35,107 -136,185 -254,185z"></path> <path class="fil0" d="M432 432c-44,0 -83,-21 -108,-54l-32 0c28,48 80,80 139,80 59,0 111,-32 139,-80l-32 0c-25,33 -64,54 -108,54z"></path> <path class="fil0" d="M485 343c-7,8 -22,13 -37,13 -35,0 -60,-23 -60,-59 0,-33 20,-59 59,-59 15,0 28,5 35,12l-12 19c-6,-4 -12,-7 -23,-7 -18,0 -32,12 -32,34 0,20 14,34 34,34 8,0 17,-3 25,-8l10 19z"></path> <path class="fil0" d="M432 29c119,0 221,79 255,187l28 0c-35,-123 -148,-213 -282,-213 -134,0 -247,90 -282,213l28 0c34,-108 135,-187 255,-187z"></path> <path class="fil0" d="M699 296c0,20 -2,39 -6,58l27 0c4,-19 6,-38 6,-58 0,-19 -2,-38 -5,-56l-27 0c4,18 6,37 6,56z"></path> <path class="fil0" d="M171 240l-27 0c-4,18 -5,37 -5,56 0,20 2,39 6,58l27 0c-4,-19 -6,-38 -6,-58 0,-19 2,-38 6,-56z"></path> <path class="fil0" d="M432 162c44,0 83,21 108,54l32 0c-28,-48 -80,-80 -139,-80 -59,0 -111,32 -139,80l32 0c25,-33 64,-54 108,-54z"></path> <path class="fil0" d="M310 240l-29 0c-7,18 -10,37 -10,57 0,20 4,39 10,57l29 0c-8,-17 -13,-36 -13,-57 0,-20 5,-40 13,-57z"></path> <path class="fil0" d="M583 240l-29 0c8,17 13,37 13,57 0,20 -5,39 -13,57l29 0c7,-18 10,-37 10,-57 0,-20 -4,-39 -10,-57z"></path> <path class="fil0" d="M176 240c-2,0 -5,0 -9,0l0 25c5,0 8,0 11,0 9,0 16,3 16,13 0,11 -8,14 -15,14 -4,0 -10,0 -14,-1l0 25c4,0 12,0 15,0 26,0 42,-18 42,-38 0,-20 -11,-38 -46,-38z"></path> <polygon class="fil0" points="297,284 297,284 297,265 297,265 "></polygon> <polygon class="fil0" points="297,329 297,329 297,309 297,309 "></polygon> <polygon class="fil0" points="333,308 333,284 297,284 297,308 "></polygon> <polygon class="fil0" points="338,264 338,240 297,240 297,264 "></polygon> <polygon class="fil0" points="340,329 297,329 297,353 340,353 "></polygon> <path class="fil0" d="M722 290l0 0 0 -25c0,0 0,0 0,0l0 25z"></path> <path class="fil0" d="M758 309c6,-3 19,-12 19,-33 0,-21 -11,-36 -42,-36 -1,0 -11,0 -17,0l5 25c5,0 7,0 11,0 12,0 16,6 16,12 0,10 -8,13 -18,13l-9 0 0 24 9 0 28 40 31 0 -33 -45z"></path> </g> </svg> 