<svg width="79" height="71" viewBox="0 0 79 71" fill="none" xmlns="http://www.w3.org/2000/svg">
<path fill-rule="evenodd" clip-rule="evenodd" d="M17.9138 1.57224C17.7007 1.85907 17.5245 2.23308 17.5222 2.40363C17.5188 2.65784 17.0523 2.7231 14.9207 2.76754C12.0038 2.82838 11.3393 3.05387 9.9114 4.4667C8.3443 6.01715 8.19368 6.47968 4.39579 21.393C1.12763 34.226 0.932311 35.0778 0.992506 36.2306C1.11486 38.5755 2.04759 40.5288 3.50263 41.4877C4.15499 41.9177 4.5136 41.9615 8.28832 42.0734C12.6186 42.2017 12.9673 42.1373 13.1912 41.1657C13.2394 40.9565 13.7996 36.0296 14.4364 30.2169C15.073 24.4043 15.691 19.3419 15.8095 18.9671C15.9281 18.5926 16.3014 17.959 16.6391 17.559V17.559C16.8513 17.3077 17.2616 17.4547 17.266 17.7835L17.3065 20.7897C17.3972 27.5081 17.7976 36.1088 18.1984 39.9542C18.2835 40.77 18.2878 40.7744 18.8902 40.6607C20.9171 40.2778 20.7644 40.3567 20.6811 39.7363C20.3702 37.4237 19.9142 27.9863 19.8105 21.7224L19.7848 20.1677C19.7672 19.1098 20.6276 18.2466 21.6856 18.2607V18.2607L22.7852 18.2753C23.2713 18.2817 23.6872 18.6263 23.7838 19.1028V19.1028C24.0228 20.2833 24.8974 21.6228 25.872 22.3017C26.8215 22.9634 27.1634 23.5177 27.152 24.3768C27.1415 25.1732 26.585 25.9159 25.6644 26.3626C24.7621 26.8004 23.7287 28.1148 23.3288 29.3325C23.0025 30.3263 18.2234 57.6359 18.0576 59.4536C17.6477 63.9508 20.0246 68.5536 23.266 69.539C24.4181 69.8892 48.5326 70.2061 49.6776 69.8861C52.9692 68.966 55.4436 64.4728 55.1518 59.946C54.9915 57.4605 50.9451 30.5929 50.556 29.43C50.1183 28.1226 49.347 27.1381 48.3622 26.63C47.1352 25.9968 46.6551 24.7147 47.2317 23.6117C47.3595 23.3671 47.8521 22.9119 48.3262 22.5998C49.745 21.6664 50.7789 19.6046 50.8048 17.6578C50.8117 17.1359 50.8971 16.9246 51.143 16.8203C51.324 16.7438 52.8083 15.5982 54.4415 14.275L55.1625 13.6908C56.6155 12.5135 58.4351 11.8824 60.3051 11.9072L67.4062 12.0015L76.7515 12.1255C77.1595 12.1309 77.5452 11.9401 77.7885 11.6125V11.6125C78.1728 11.0954 78.1764 11.0579 78.2304 6.9956C78.2843 2.93333 78.2817 2.89575 77.9112 2.36858V2.36858C77.6767 2.03467 77.2962 1.83367 76.8882 1.82825L64.0391 1.65771L51.19 1.48716C50.782 1.48174 50.3962 1.67258 50.153 2.00015V2.00015C49.9399 2.28698 49.7635 2.67086 49.7611 2.8532C49.7571 3.14946 48.4377 3.16714 37.357 3.02007C26.2763 2.87299 24.9578 2.8203 24.9617 2.52404C24.9641 2.3417 24.798 1.95328 24.5926 1.66089C24.2223 1.13351 24.1952 1.12886 21.2602 1.0899C18.3252 1.05095 18.298 1.05488 17.9138 1.57224ZM22.3863 9.6874L22.3344 13.5961C22.3253 14.2809 21.7628 14.8287 21.078 14.8196V14.8196V14.8196C20.3932 14.8105 19.8454 14.248 19.8545 13.5631L19.9063 9.65449L19.9582 5.74583C19.9673 5.06102 20.5298 4.51323 21.2146 4.52232V4.52232V4.52232C21.8995 4.53141 22.4472 5.09393 22.4382 5.77875L22.3863 9.6874ZM68.3106 6.86393V6.86393C68.298 7.81177 67.5195 8.56994 66.5716 8.55736L62.5367 8.50381L59.681 8.4659C57.8101 8.44107 55.9897 9.07277 54.5364 10.2511L54.4514 10.3201V10.3201C53.5244 11.0717 52.1413 10.4012 52.1571 9.20786L52.1655 8.57321V8.57321C52.1922 6.5632 53.8433 4.9554 55.8533 4.98208L60.2736 5.04075L66.6172 5.12495C67.565 5.13753 68.3232 5.9161 68.3106 6.86393V6.86393ZM75.7504 6.96268V6.96268C75.7378 7.91052 74.9593 8.66869 74.0114 8.65611L73.2477 8.64598L72.484 8.63584C71.5362 8.62326 70.778 7.84469 70.7906 6.89685V6.89685V6.89685C70.8031 5.94902 71.5817 5.19084 72.5295 5.20342L73.2933 5.21356L74.057 5.2237C75.0048 5.23628 75.763 6.01485 75.7504 6.96268V6.96268ZM17.4255 9.68936L17.3927 12.1627C17.3842 12.7978 17.0364 13.3797 16.481 13.6879V13.6879C15.4067 14.2841 14.1449 15.9012 13.6444 17.3234C13.3438 18.1776 13.2162 18.3317 12.7053 18.4569C11.1089 18.8479 9.04528 20.935 8.19303 23.0206C7.88779 23.7678 7.29446 26.4121 6.36144 31.1841C5.60238 35.0664 4.94001 38.2984 4.8895 38.3662C4.83899 38.4341 4.62442 38.3772 4.41247 38.2397C3.94292 37.9348 3.42539 36.7718 3.4343 36.0418C3.44297 35.3302 10.0602 9.39356 10.4522 8.53471C10.8322 7.70232 11.7 6.79614 12.469 6.42893C12.8495 6.2471 13.8272 6.15623 15.2631 6.16928V6.16928C16.4815 6.18024 17.4588 7.17956 17.4426 8.39787L17.4255 9.68936ZM26.129 8.02057L26.1226 8.49681C26.1135 9.18163 26.6613 9.74415 27.3461 9.75324V9.75324V9.75324C28.031 9.76233 28.5935 9.21454 28.6026 8.52973L28.6089 8.05349L28.6152 7.57725C28.6243 6.89243 29.1868 6.34465 29.8716 6.35374V6.35374V6.35374C30.5565 6.36282 31.1042 6.92535 31.0951 7.61016L31.0888 8.0864L31.0825 8.56264C31.0734 9.24746 31.6212 9.80998 32.306 9.81907V9.81907V9.81907C32.9908 9.82816 33.5533 9.28037 33.5624 8.59556L33.5688 8.11932L33.5751 7.64308C33.5842 6.95826 34.1467 6.41048 34.8315 6.41957V6.41957V6.41957C35.5163 6.42866 36.0641 6.99118 36.055 7.67599L36.0487 8.15223L36.0424 8.62847C36.0333 9.31329 36.5811 9.87581 37.2659 9.8849V9.8849V9.8849C37.9507 9.89399 38.5132 9.34621 38.5223 8.66139L38.5286 8.18515L38.5349 7.70891C38.544 7.02409 39.1066 6.47631 39.7914 6.4854V6.4854V6.4854C40.4762 6.49449 41.024 7.05701 41.0149 7.74183L41.0086 8.21807L41.0022 8.69431C40.9932 9.37912 41.5409 9.94164 42.2258 9.95073V9.95073V9.95073C42.9106 9.95982 43.4731 9.41204 43.4822 8.72722L43.4885 8.25098L43.4948 7.77474C43.5039 7.08993 44.0664 6.54214 44.7512 6.55123V6.55123V6.55123C45.4361 6.56032 45.9838 7.12284 45.9748 7.80766L45.9684 8.2839L45.9621 8.76014C45.953 9.44495 46.5008 10.0075 47.1856 10.0166V10.0166V10.0166C47.8704 10.0257 48.433 9.47787 48.442 8.79306L48.4484 8.31681L48.4629 7.22059C48.4675 6.87818 48.7487 6.60429 49.0911 6.60884V6.60884V6.60884C49.4335 6.61338 49.7074 6.89464 49.7029 7.23705L49.6656 10.0495V10.0495C49.6404 11.9452 48.0833 13.4615 46.1876 13.4363L37.2203 13.3173L28.2531 13.1983C26.3574 13.1731 24.841 11.616 24.8662 9.72032V9.72032L24.9035 6.90789C24.9081 6.56548 25.1893 6.29159 25.5317 6.29613V6.29613V6.29613C25.8742 6.30068 26.148 6.58194 26.1435 6.92435L26.129 8.02057ZM48.3263 17.5125C48.3148 18.3792 47.8175 19.128 46.7405 19.9008C44.9213 21.2058 44.1109 23.7542 44.716 26.267C45.0763 27.7626 45.649 28.6141 46.8473 29.4348C48.111 30.3006 48.4176 30.7038 48.5435 31.6661V31.6661C48.5908 32.0271 48.3071 32.3461 47.943 32.3413L36.9698 32.1956L25.9965 32.05C25.6324 32.0451 25.3572 31.7187 25.4141 31.3591V31.3591C25.5656 30.4005 25.8827 30.0056 27.169 29.1736C28.3886 28.385 28.9837 27.549 29.3835 26.0635C30.0552 23.5676 29.3126 20.9987 27.5288 19.6458C26.4727 18.8447 25.9954 18.0829 26.0069 17.2162V17.2162C26.0114 16.8768 26.2902 16.6053 26.6297 16.6098L37.1748 16.7497L47.7199 16.8897C48.0593 16.8942 48.3308 17.173 48.3263 17.5125V17.5125ZM12.76 22.3798C12.7566 22.5864 12.3589 26.3225 11.8761 30.6824C11.3933 35.0424 10.9974 38.6339 10.9964 38.6633C10.9953 38.6927 10.1995 38.7063 9.22814 38.6934V38.6934C8.30853 38.6812 7.62454 37.8391 7.80116 36.9365L8.75214 32.0766C9.46176 28.45 10.1361 25.2487 10.2506 24.9623C10.6637 23.9301 11.1288 23.2334 11.813 22.6228C12.6198 21.9025 12.7687 21.8643 12.76 22.3798ZM49.2155 36.2739C49.2595 36.5402 50.0722 42.0303 51.0214 48.4744C52.8923 61.1765 52.9146 61.4551 52.2101 63.3213C51.7313 64.5903 51.1711 65.3589 50.2403 66.0246V66.0246C49.7319 66.3882 49.1207 66.5798 48.4957 66.5715L36.5156 66.4125L24.3672 66.2513C23.8517 66.2444 23.352 66.0722 22.9417 65.7599V65.7599C21.9525 65.0069 21.3703 64.2073 20.9595 63.0374C20.2469 61.008 20.2603 60.8773 22.491 48.0957C23.6109 41.679 24.569 36.2124 24.6201 35.9475V35.9475C24.674 35.6688 24.9197 35.4687 25.2035 35.4725L36.9242 35.628L48.6448 35.7836C48.9287 35.7874 49.169 35.9939 49.2155 36.2739V36.2739Z" fill="white"/>
<path fill-rule="evenodd" clip-rule="evenodd" d="M40.502 40.1378C40.9393 39.5368 41.5425 38.9396 41.8426 38.8108C43.2937 38.1885 44.5571 38.655 45.6274 40.2082C46.4151 41.3515 46.7549 42.4638 46.7366 43.8394C46.6907 47.2963 43.9188 50.0035 41.7651 48.6949C41.4613 48.5104 41.1897 48.3592 41.1612 48.3588C41.1328 48.3584 41.2105 48.7779 41.3339 49.2907C41.6532 50.6178 41.7244 53.0673 41.4867 54.5452C41.1678 56.5266 40.3139 58.6063 39.2438 60.0071C36.2345 63.9468 31.7597 63.8301 28.9444 59.7385C25.8142 55.1895 26.2047 48.0461 29.7957 44.1623C32.4118 41.3329 36.2335 41.2951 38.7475 44.074V44.074C38.9392 44.2858 39.2913 44.1528 39.2951 43.8671L39.2954 43.8467C39.3151 42.3658 39.6658 41.2875 40.502 40.1378ZM38.7562 49.5301C38.2848 48.117 37.3686 46.7948 36.3976 46.126C35.3948 45.435 33.7451 45.267 32.7603 45.7555C28.4946 47.8715 28.0526 55.8897 32.0446 58.7385C32.681 59.1927 33.038 59.2884 34.13 59.2974C35.2465 59.3066 35.5694 59.2214 36.2468 58.7398C37.4255 57.9017 37.9212 57.2449 38.527 55.7174C39.0227 54.4678 39.073 54.1819 39.0968 52.4875C39.1182 50.953 39.0589 50.4371 38.7562 49.5301ZM43.8918 42.5899C44.1272 42.9314 44.2619 43.3816 44.2562 43.8076C44.2505 44.2337 44.104 44.6801 43.8596 45.0153C43.6153 45.3506 43.2949 45.5447 42.993 45.5407C42.6911 45.5367 42.376 45.3342 42.1407 44.9924C41.9052 44.6509 41.7706 44.2007 41.7763 43.7747C41.7819 43.3487 41.9285 42.9023 42.1729 42.5671C42.4171 42.2318 42.7375 42.0376 43.0395 42.0416C43.3414 42.0456 43.6565 42.2482 43.8918 42.5899Z" fill="#DB3138"/>
</svg>
