<svg width="57" height="71" viewBox="0 0 57 71" fill="none" xmlns="http://www.w3.org/2000/svg">
<path fill-rule="evenodd" clip-rule="evenodd" d="M2.27388 0.465552C1.58116 0.683897 0.399675 1.9073 0.187258 2.62627C-0.0624194 3.47142 -0.0624194 67.0965 0.187258 67.9416C0.416329 68.7169 1.58554 69.8861 2.36082 70.1152C2.8057 70.2466 7.94463 70.2868 24.3062 70.2868H45.6705L51.0711 64.8861L56.4719 59.4855V31.3464C56.4719 10.0158 56.4312 3.07171 56.304 2.64716C56.2117 2.33919 55.8617 1.78183 55.5261 1.40851C54.4209 0.179178 56.8774 0.279247 28.1833 0.295478C10.0846 0.305781 2.6256 0.354757 2.27388 0.465552ZM53.8671 2.88583L54.2136 3.23219V30.5494V57.8664H50.5956C48.1676 57.8664 46.7865 57.9229 46.3967 58.0381C45.6214 58.2671 44.4522 59.4363 44.2231 60.2116C44.1079 60.6015 44.0515 61.9825 44.0515 64.4106V68.0286H23.5092H2.96674L2.62038 67.6821L2.27388 67.3357V35.2839V3.23219L2.62038 2.88583L2.96674 2.53933H28.2437H53.5207L53.8671 2.88583ZM20.975 4.99518C19.2559 5.43469 18.8881 5.69044 14.7648 9.31351C12.9794 10.8824 11.328 12.2862 11.0952 12.4331C10.8623 12.5802 10.4494 12.7013 10.1778 12.7023C9.55532 12.7047 8.39825 13.241 7.86319 13.775C7.63821 13.9997 7.30032 14.5164 7.11232 14.9234C6.77866 15.6459 6.77175 15.7357 6.81578 18.7342C6.86053 21.7806 6.86405 21.8109 7.25388 22.5508C7.7754 23.5406 8.60446 24.322 9.54812 24.7131C10.0495 24.921 10.3189 25.1156 10.3189 25.27C10.3189 25.4006 10.5419 25.953 10.8143 26.4977C12.8896 30.6459 18.7546 30.6511 20.8281 26.5064C21.1029 25.957 21.3279 25.4206 21.3279 25.3146C21.3279 25.1549 22.318 25.1218 27.1146 25.1218C31.9113 25.1218 32.9014 25.1549 32.9014 25.3146C32.9014 25.4206 33.1244 25.953 33.3968 26.4977C35.4721 30.6459 41.3371 30.6511 43.4106 26.5064C43.6854 25.957 43.9103 25.4206 43.9103 25.3146C43.9103 25.1643 44.2259 25.1218 45.3407 25.1218C46.1274 25.1218 47.0324 25.0446 47.3519 24.9502C48.1272 24.7211 49.2964 23.5519 49.5255 22.7766C49.6384 22.3943 49.6971 21.0849 49.6971 18.9462C49.6971 16.0598 49.6694 15.6631 49.4501 15.3967C49.2649 15.1717 48.2178 14.8156 45.2676 13.9743C43.103 13.3569 41.319 12.834 41.3031 12.812C41.2871 12.7899 40.3269 11.4392 39.1696 9.81047C38.0121 8.18157 36.8206 6.60333 36.5218 6.30327C36.223 6.0032 35.5561 5.55748 35.0398 5.31288L34.1011 4.86815L27.8909 4.84148C23.2366 4.82143 21.5039 4.85996 20.975 4.99518ZM25.9855 9.80807V12.5603H20.2391C15.357 12.5603 14.5238 12.5311 14.6993 12.3662C15.9042 11.2347 19.9132 7.83817 20.2526 7.66118C21.1709 7.18257 21.8316 7.0746 23.9037 7.06529L25.9855 7.05583V9.80807ZM34.1011 7.39132C34.968 7.8002 35.0486 7.88955 36.9181 10.5138L38.4263 12.6309L34.3584 12.6739C32.1209 12.6975 29.8299 12.6762 29.267 12.6265L28.2437 12.5362V9.79607V7.05583L30.8196 7.05724C33.2305 7.05851 33.4405 7.07982 34.1011 7.39132ZM42.5862 15.5488L44.5786 16.1203L44.3504 16.5633C43.9967 17.2494 44.0508 18.5781 44.4592 19.2391C44.9304 20.0015 45.6963 20.465 46.6472 20.5631L47.4389 20.6448V21.4077C47.4389 22.0296 47.3748 22.2348 47.0924 22.5171C46.7706 22.839 46.6454 22.8636 45.3281 22.8636C44.224 22.8636 43.9103 22.821 43.9103 22.6708C43.9103 22.5648 43.6873 22.0324 43.4149 21.4877C42.8128 20.2844 41.9659 19.469 40.6895 18.8644C39.8369 18.4604 39.6184 18.4176 38.4059 18.4176C37.1933 18.4176 36.9748 18.4604 36.1222 18.8644C34.8459 19.469 33.9989 20.2844 33.3968 21.4877C33.1244 22.0324 32.9014 22.5648 32.9014 22.6708C32.9014 22.8305 31.9113 22.8636 27.1146 22.8636C22.318 22.8636 21.3279 22.8305 21.3279 22.6708C21.3279 22.5648 21.1049 22.0324 20.8325 21.4877C20.2303 20.2844 19.3834 19.469 18.107 18.8644C17.2544 18.4604 17.0359 18.4176 15.8234 18.4176C14.6108 18.4176 14.3924 18.4604 13.5397 18.8644C13.0213 19.1099 12.3156 19.5703 11.9718 19.8872C11.3532 20.4574 10.46 21.9148 10.46 22.3541C10.46 22.6551 10.2914 22.6407 9.86188 22.3028C9.32738 21.8824 9.04863 21.1638 9.04863 20.2062V19.3558L9.80175 19.0109C11.1849 18.3777 12.1764 17.0174 12.385 15.467L12.4782 14.7747L26.5358 14.8759L40.5935 14.9772L42.5862 15.5488ZM10.1237 15.4066C10.0291 15.8795 9.40868 16.7945 9.18257 16.7945C9.00981 16.7945 9.01024 16.2082 9.18328 15.7531C9.2904 15.4713 9.88093 14.9951 10.1601 14.9653C10.1892 14.9622 10.1728 15.1608 10.1237 15.4066ZM16.9525 17.218V18.3471H18.6462H20.3399V17.218V16.0888H18.6462H16.9525V17.218ZM30.502 17.218V18.3471H32.1957H33.8894V17.218V16.0888H32.1957H30.502V17.218ZM47.4389 17.7825C47.4389 18.3067 47.4106 18.3471 47.0437 18.3471C46.6018 18.3471 46.3097 18.1224 46.3097 17.7825C46.3097 17.4426 46.6018 17.218 47.0437 17.218C47.4106 17.218 47.4389 17.2583 47.4389 17.7825ZM16.8656 20.777C18.0785 21.1353 19.2107 22.6879 19.2107 23.9927C19.2107 25.7416 17.5722 27.3801 15.8234 27.3801C14.0745 27.3801 12.436 25.7416 12.436 23.9927C12.436 23.1056 12.7589 22.3899 13.4898 21.6575C14.4799 20.6653 15.5463 20.3871 16.8656 20.777ZM39.448 20.777C40.661 21.1353 41.7932 22.6879 41.7932 23.9927C41.7932 25.7416 40.1547 27.3801 38.4059 27.3801C36.657 27.3801 35.0185 25.7416 35.0185 23.9927C35.0185 23.1056 35.3414 22.3899 36.0722 21.6575C37.0623 20.6653 38.1288 20.3871 39.448 20.777ZM14.6943 23.9927V25.1218H15.8234H16.9525V23.9927V22.8636H15.8234H14.6943V23.9927ZM37.2767 23.9927V25.1218H38.4059H39.535V23.9927V22.8636H38.4059H37.2767V23.9927ZM38.2647 32.6728L36.7878 34.1548H33.4267H30.0657L29.7194 34.5013L29.3729 34.8477V38.6713V42.495L29.7194 42.8413L30.0657 43.1878H33.8894H37.713L38.0594 42.8413L38.4059 42.495V39.134V35.7729L39.8878 34.296C40.7029 33.4837 41.3698 32.752 41.3698 32.67C41.3698 32.4832 40.0686 31.1909 39.8805 31.1909C39.8041 31.1909 39.077 31.8578 38.2647 32.6728ZM18.0816 36.4131V37.5422H22.5981H27.1146V36.4131V35.2839H22.5981H18.0816V36.4131ZM42.9224 36.4131V37.5422H47.4389H51.9554V36.4131V35.2839H47.4389H42.9224V36.4131ZM33.8487 37.0883C33.483 37.4598 33.1906 37.8249 33.1989 37.8998C33.2072 37.9748 33.5587 38.3494 33.9797 38.7322L34.7452 39.4281L35.4464 38.7375L36.1476 38.0468V39.4882V40.9296H33.8894H31.6311V38.6713V36.4131H33.0724H34.5139L33.8487 37.0883ZM15.8234 40.9296V42.0587H21.469H27.1146V40.9296V39.8004H21.469H15.8234V40.9296ZM40.6641 40.9296V42.0587H46.3097H51.9554V40.9296V39.8004H46.3097H40.6641V40.9296ZM13.424 43.9641L11.9471 45.4461H8.58597H5.22499L4.87863 45.7926L4.53213 46.1389V49.9626V53.7862L4.87863 54.1326L5.22499 54.4791H9.04863H12.8723L13.2186 54.1326L13.5651 53.7862V50.4252V47.0641L15.0471 45.5872C15.8622 44.7749 16.5291 44.0433 16.5291 43.9613C16.5291 43.7744 15.2279 42.4821 15.0398 42.4821C14.9634 42.4821 14.2362 43.149 13.424 43.9641ZM38.2647 43.9641L36.7878 45.4461H33.4267H30.0657L29.7194 45.7926L29.3729 46.1389V49.9626V53.7862L29.7194 54.1326L30.0657 54.4791H33.8894H37.713L38.0594 54.1326L38.4059 53.7862V50.4252V47.0641L39.8878 45.5872C40.7029 44.7749 41.3698 44.0433 41.3698 43.9613C41.3698 43.7744 40.0686 42.4821 39.8805 42.4821C39.8041 42.4821 39.077 43.149 38.2647 43.9641ZM18.0816 47.7043V48.8334H22.5981H27.1146V47.7043V46.5752H22.5981H18.0816V47.7043ZM42.9224 47.7043V48.8334H47.4389H51.9554V47.7043V46.5752H47.4389H42.9224V47.7043ZM9.00798 48.3795C8.64228 48.751 8.34984 49.1161 8.35817 49.1911C8.3665 49.266 8.71793 49.6406 9.13896 50.0234L9.9045 50.7194L10.6057 50.0288L11.3069 49.338V50.7795V52.2208H9.04863H6.79038V49.9626V47.7043H8.23171H9.67317L9.00798 48.3795ZM33.8487 48.3795C33.483 48.751 33.1906 49.1161 33.1989 49.1911C33.2072 49.266 33.5587 49.6406 33.9797 50.0234L34.7452 50.7194L35.4464 50.0288L36.1476 49.338V50.7795V52.2208H33.8894H31.6311V49.9626V47.7043H33.0724H34.5139L33.8487 48.3795ZM15.8234 52.2208V53.3499H21.469H27.1146V52.2208V51.0917H21.469H15.8234V52.2208ZM40.6641 52.2208V53.3499H46.3097H51.9554V52.2208V51.0917H46.3097H40.6641V52.2208ZM13.424 55.2553L11.9471 56.7373H8.58597H5.22499L4.87863 57.0838L4.53213 57.4302V61.2538V65.0775L4.87863 65.4238L5.22499 65.7703H9.04863H12.8723L13.2186 65.4238L13.5651 65.0775V61.7165V58.3553L15.0471 56.8785C15.8622 56.0662 16.5291 55.3345 16.5291 55.2525C16.5291 55.0656 15.2279 53.7734 15.0398 53.7734C14.9634 53.7734 14.2362 54.4403 13.424 55.2553ZM18.0816 58.9956V60.1247H22.5981H27.1146V58.9956V57.8664H22.5981H18.0816V58.9956ZM9.00798 59.6708C8.64228 60.0423 8.34984 60.4074 8.35817 60.4823C8.3665 60.5573 8.71793 60.9319 9.13896 61.3146L9.9045 62.0106L10.6057 61.32L11.3069 60.6293V62.0707V63.5121H9.04863H6.79038V61.2538V58.9956H8.23171H9.67317L9.00798 59.6708ZM52.5199 60.1612C52.5199 60.1813 51.1226 61.5938 49.4148 63.3004L46.3097 66.403V63.6103C46.3097 59.8619 46.0495 60.1247 49.7613 60.1247C51.2786 60.1247 52.5199 60.1411 52.5199 60.1612ZM15.8234 63.5121V64.6412H21.469H27.1146V63.5121V62.3829H21.469H15.8234V63.5121Z" fill="white"/>
<path fill-rule="evenodd" clip-rule="evenodd" d="M13.4238 32.6726L11.9469 34.1546H8.58582H5.22484L4.87848 34.5011L4.53198 34.8475V38.6711V42.4947L4.87848 42.8411L5.22484 43.1876H9.04848H12.8721L13.2185 42.8411L13.565 42.4947V39.1338V35.7726L15.047 34.2957C15.862 33.4835 16.5289 32.7518 16.5289 32.6698C16.5289 32.4829 15.2278 31.1906 15.0396 31.1906C14.9633 31.1906 14.2361 31.8575 13.4238 32.6726ZM9.00783 37.0881C8.64214 37.4595 8.34969 37.8247 8.35802 37.8996C8.36635 37.9746 8.71779 38.3491 9.13881 38.7319L9.90436 39.4279L10.6055 38.7373L11.3067 38.0465V39.488V40.9293H9.04848H6.79023V38.6711V36.4128H8.23156H9.67303L9.00783 37.0881Z" fill="#DB3138"/>
<path fill-rule="evenodd" clip-rule="evenodd" d="M13.4238 43.9697L11.9469 45.4517H8.58582H5.22484L4.87848 45.7982L4.53198 46.1445V49.9681V53.7918L4.87848 54.1381L5.22484 54.4846H9.04848H12.8721L13.2185 54.1381L13.565 53.7918V50.4308V47.0697L15.047 45.5928C15.862 44.7805 16.5289 44.0489 16.5289 43.9669C16.5289 43.78 15.2278 42.4877 15.0396 42.4877C14.9633 42.4877 14.2361 43.1546 13.4238 43.9697ZM9.00783 48.3851C8.64214 48.7566 8.34969 49.1217 8.35802 49.1967C8.36635 49.2716 8.71779 49.6462 9.13881 50.029L9.90436 50.7249L10.6055 50.0343L11.3067 49.3436V50.7851V52.2264H9.04848H6.79023V49.9682V47.7099H8.23156H9.67303L9.00783 48.3851Z" fill="#DB3138"/>
<path fill-rule="evenodd" clip-rule="evenodd" d="M13.4241 55.2611L11.9472 56.743H8.58607H5.22509L4.87873 57.0895L4.53223 57.4359V61.2595V65.0832L4.87873 65.4295L5.22509 65.776H9.04872H12.8724L13.2187 65.4295L13.5652 65.0832V61.7222V58.3611L15.0472 56.8842C15.8623 56.0719 16.5292 55.3402 16.5292 55.2582C16.5292 55.0714 15.228 53.7791 15.0399 53.7791C14.9635 53.7791 14.2363 54.446 13.4241 55.2611ZM9.00799 59.6766C8.6423 60.0481 8.34985 60.4132 8.35818 60.4881C8.36651 60.5631 8.71795 60.9377 9.13897 61.3205L9.90452 62.0164L10.6057 61.3258L11.3069 60.6351V62.0765V63.5179H9.04864H6.79039V61.2596V59.0014H8.23172H9.67319L9.00799 59.6766Z" fill="#DB3138"/>
<path fill-rule="evenodd" clip-rule="evenodd" d="M38.2363 43.9697L36.7594 45.4517H33.3983H30.0373L29.691 45.7982L29.3445 46.1445V49.9681V53.7918L29.691 54.1381L30.0373 54.4846H33.861H37.6846L38.031 54.1381L38.3775 53.7918V50.4308V47.0697L39.8595 45.5928C40.6745 44.7805 41.3414 44.0489 41.3414 43.9669C41.3414 43.78 40.0403 42.4877 39.8521 42.4877C39.7758 42.4877 39.0486 43.1546 38.2363 43.9697ZM33.8203 48.3851C33.4546 48.7566 33.1622 49.1217 33.1705 49.1967C33.1788 49.2716 33.5303 49.6462 33.9513 50.029L34.7169 50.7249L35.418 50.0343L36.1192 49.3436V50.7851V52.2264H33.861H31.6027V49.9682V47.7099H33.0441H34.4855L33.8203 48.3851Z" fill="#DB3138"/>
<path fill-rule="evenodd" clip-rule="evenodd" d="M38.2363 32.6787L36.7594 34.1607H33.3983H30.0373L29.691 34.5072L29.3445 34.8535V38.6772V42.5008L29.691 42.8472L30.0373 43.1937H33.861H37.6846L38.031 42.8472L38.3775 42.5008V39.1398V35.7787L39.8595 34.3018C40.6745 33.4895 41.3414 32.7579 41.3414 32.6759C41.3414 32.489 40.0403 31.1967 39.8521 31.1967C39.7758 31.1967 39.0486 31.8636 38.2363 32.6787ZM33.8203 37.0941C33.4546 37.4656 33.1622 37.8307 33.1705 37.9057C33.1788 37.9806 33.5303 38.3552 33.9513 38.738L34.7169 39.434L35.418 38.7434L36.1192 38.0526V39.4941V40.9354H33.861H31.6027V38.6772V36.4189H33.0441H34.4855L33.8203 37.0941Z" fill="#DB3138"/>
</svg>
