<svg width="20" height="20" viewBox="0 0 20 20" fill="none" xmlns="http://www.w3.org/2000/svg">
<path d="M19.9687 4.78288C20.1387 5.23032 19.6164 6.27435 18.4018 7.91497C18.2317 8.13869 18.0131 8.43698 17.7459 8.80985C17.1872 9.50587 16.8713 9.96574 16.7985 10.1895C16.677 10.4878 16.7256 10.7736 16.9442 11.0471C17.0657 11.1962 17.3451 11.4945 17.7823 11.9419H17.8188V11.9792C18.8148 12.899 19.4828 13.682 19.8229 14.3283L19.8958 14.4774L19.9687 14.7571V15.1113L19.7136 15.391L19.0941 15.5215L16.4341 15.596C16.264 15.6209 16.0636 15.596 15.8328 15.5215C15.602 15.4469 15.4259 15.3723 15.3045 15.2977L15.0858 15.1486C14.8672 14.9994 14.6243 14.7757 14.357 14.4774C14.0898 14.1791 13.853 13.9057 13.6465 13.6571C13.44 13.4085 13.2274 13.2035 13.0088 13.0419C12.7902 12.8803 12.5958 12.8244 12.4258 12.8741C12.4015 12.8741 12.3711 12.8865 12.3347 12.9114C12.2982 12.9362 12.2375 12.9922 12.1525 13.0792C12.0674 13.1662 11.9946 13.2718 11.9338 13.3961C11.8731 13.5204 11.8184 13.7006 11.7699 13.9368C11.7213 14.1729 11.697 14.4526 11.697 14.7757C11.697 14.8752 11.6848 14.9684 11.6605 15.0554C11.6362 15.1424 11.612 15.2107 11.5877 15.2605L11.5512 15.2977C11.4055 15.4469 11.2111 15.5215 10.9682 15.5215H9.80214C9.29199 15.5712 8.77577 15.5215 8.25348 15.3723C7.73118 15.2232 7.27569 15.0305 6.88701 14.7944C6.49832 14.5582 6.14608 14.3221 5.83027 14.0859C5.51446 13.8498 5.27154 13.6447 5.10149 13.4707L4.84641 13.2097C4.77353 13.16 4.67636 13.0605 4.5549 12.9114C4.43343 12.7622 4.18443 12.4391 3.8079 11.9419C3.43136 11.4448 3.06089 10.9103 2.6965 10.3386C2.33211 9.76687 1.90698 9.01492 1.42113 8.08276C0.935273 7.15059 0.485856 6.18735 0.0728784 5.19303C0.0242928 5.06875 0 4.96931 0 4.89474C0 4.82017 0.0121464 4.75802 0.0364392 4.70831L0.0728784 4.67102C0.17005 4.52187 0.364392 4.4473 0.655905 4.4473H3.5346C3.60748 4.4473 3.68036 4.46594 3.75324 4.50323L3.93543 4.59645L3.97187 4.63373C4.09334 4.70831 4.17836 4.82017 4.22695 4.96931C4.3727 5.31732 4.53668 5.68398 4.71888 6.06927C4.90107 6.45457 5.04075 6.74665 5.13793 6.94551L5.28368 7.2438C5.50232 7.66639 5.70273 8.03304 5.88493 8.34376C6.06713 8.65449 6.2311 8.89685 6.37686 9.07085C6.52262 9.24486 6.66837 9.38158 6.81413 9.48101C6.95989 9.58044 7.08135 9.63016 7.17852 9.63016C7.27569 9.63016 7.37286 9.61773 7.47003 9.59287L7.50647 9.53694L7.63401 9.29457L7.77977 8.80985L7.87087 7.95225V6.60993C7.84657 6.33649 7.81013 6.0817 7.76155 5.84555C7.71296 5.6094 7.66438 5.44161 7.61579 5.34218L7.57935 5.23032C7.4093 4.98174 7.10564 4.82017 6.66837 4.74559C6.59549 4.74559 6.61979 4.65859 6.74125 4.48459C6.86271 4.3603 6.99632 4.26087 7.14208 4.18629C7.50647 3.98743 8.33243 3.90043 9.61995 3.92529C10.1787 3.92529 10.6524 3.975 11.0411 4.07443C11.1625 4.09929 11.2719 4.14279 11.369 4.20494C11.4662 4.26708 11.5391 4.35408 11.5877 4.46594C11.6362 4.5778 11.6727 4.68966 11.697 4.80152C11.7213 4.91338 11.7334 5.07496 11.7334 5.28625V5.8642C11.7091 6.06306 11.697 6.31164 11.697 6.60993V7.50481C11.697 7.57939 11.6909 7.72853 11.6788 7.95225C11.6666 8.17597 11.6605 8.34998 11.6605 8.47427C11.6605 8.59856 11.6727 8.74149 11.697 8.90306C11.7213 9.06464 11.7638 9.20136 11.8245 9.31322C11.8853 9.42508 11.9642 9.50587 12.0614 9.55558C12.11 9.58044 12.1646 9.59908 12.2253 9.61151C12.2861 9.62394 12.3772 9.58665 12.4986 9.49965C12.6201 9.41265 12.7537 9.28836 12.8995 9.12678C13.0452 8.96521 13.2274 8.72284 13.4461 8.39969C13.6647 8.07654 13.8955 7.70367 14.1384 7.28109C14.5514 6.53536 14.9279 5.72748 15.268 4.85745C15.2923 4.80774 15.3227 4.75181 15.3591 4.68966C15.3956 4.62752 15.4381 4.58402 15.4867 4.55916H15.5231L15.5595 4.52187L15.7053 4.48459H15.9239L18.9119 4.4473C19.1792 4.42244 19.4039 4.43487 19.5861 4.48459C19.7683 4.5343 19.8715 4.59645 19.8958 4.67102L19.9687 4.78288Z" fill="white"/>
</svg>
