<svg width="20" height="20" viewBox="0 0 20 20" fill="none" xmlns="http://www.w3.org/2000/svg">
<g clip-path="url(#clip0_365_307)">
<path d="M19.5834 5.75354C19.4701 5.3602 19.2495 5.00409 18.945 4.72306C18.6319 4.43339 18.2482 4.22619 17.83 4.121C16.265 3.71936 9.99503 3.71936 9.99503 3.71936C7.38113 3.6904 4.76788 3.81776 2.17003 4.10072C1.75185 4.21367 1.36883 4.42551 1.05503 4.71738C0.746693 5.00624 0.523359 5.36245 0.406693 5.75273C0.126437 7.22279 -0.00973061 8.71545 2.60381e-05 10.2106C-0.00997396 11.7044 0.125859 13.1965 0.406693 14.6684C0.520859 15.0571 0.743359 15.4117 1.05253 15.6981C1.36169 15.9845 1.74669 16.1914 2.17003 16.301C3.75586 16.7018 9.99503 16.7018 9.99503 16.7018C12.6122 16.7308 15.2288 16.6035 17.83 16.3205C18.2482 16.2153 18.6319 16.0081 18.945 15.7184C19.2534 15.432 19.4725 15.0758 19.5825 14.6879C19.8701 13.2184 20.0099 11.7251 20 10.2292C20.0217 8.72702 19.882 7.2267 19.5834 5.75273V5.75354ZM8.00169 12.9888V7.43315L13.2184 10.2114L8.00169 12.9888Z" fill="white"/>
</g>
<defs>
<clipPath id="clip0_365_307">
<rect width="20" height="19.4737" fill="white" transform="translate(0 0.473633)"/>
</clipPath>
</defs>
</svg>
